<svg version="1.1" viewBox="0.0 0.0 600.0 371.0" fill="none" stroke="none" stroke-linecap="square" stroke-miterlimit="10" width="600" height="371" xmlns:xlink="http://www.w3.org/1999/xlink" xmlns="http://www.w3.org/2000/svg"><path fill="#ffffff" d="M0 0L600.0 0L600.0 371.0L0 371.0L0 0Z" fill-rule="nonzero"/><path fill="#4285f4" d="M300.0 54.916668C368.8904 54.916668 428.76917 102.21457 444.72266 169.23227C460.67615 236.24998 428.53055 305.45416 367.0291 336.4938L300.0 203.68333Z" fill-rule="nonzero"/><path fill="#de5fbc" d="M299.93033 54.916683C299.95355 54.91667 299.97678 54.916668 300.0 54.916668L300.0 203.68333Z" fill-rule="nonzero"/><path fill="#034913" d="M299.86066 54.916733C299.88388 54.91671 299.9071 54.916695 299.93033 54.916683L300.0 203.68333Z" fill-rule="nonzero"/><path fill="#16cedd" d="M299.791 54.916813C299.8142 54.916782 299.83743 54.91675 299.86066 54.916733L300.0 203.68333Z" fill-rule="nonzero"/><path fill="#cf850b" d="M299.7213 54.916927C299.74454 54.916885 299.76776 54.916847 299.791 54.916813L300.0 203.68333Z" fill-rule="nonzero"/><path fill="#93342d" d="M299.65164 54.917076C299.67487 54.91702 299.6981 54.916973 299.7213 54.916927L300.0 203.68333Z" fill-rule="nonzero"/><path fill="#ff74ca" d="M299.58197 54.917255C299.6052 54.91719 299.62842 54.91713 299.65164 54.917076L300.0 203.68333Z" fill-rule="nonzero"/><path fill="#a14589" d="M299.5123 54.917465C299.53552 54.91739 299.55875 54.91732 299.58197 54.917255L300.0 203.68333Z" fill-rule="nonzero"/><path fill="#0235c8" d="M299.44263 54.91771C299.46585 54.917625 299.48907 54.91754 299.5123 54.917465L300.0 203.68333Z" fill-rule="nonzero"/><path fill="#1095a1" d="M299.37296 54.917988C299.39618 54.91789 299.4194 54.917797 299.44263 54.91771L300.0 203.68333Z" fill-rule="nonzero"/><path fill="#966108" d="M299.30328 54.918297C299.3265 54.91819 299.34973 54.918087 299.37296 54.917988L300.0 203.68333Z" fill-rule="nonzero"/><path fill="#5c201c" d="M299.2336 54.91864C299.25684 54.91852 299.28006 54.918407 299.30328 54.918297L300.0 203.68333Z" fill-rule="nonzero"/><path fill="#ff487e" d="M299.16394 54.919018C299.18716 54.918884 299.2104 54.918762 299.2336 54.91864L300.0 203.68333Z" fill-rule="nonzero"/><path fill="#652b55" d="M299.09427 54.919422C299.1175 54.91928 299.14072 54.919147 299.16394 54.919018L300.0 203.68333Z" fill-rule="nonzero"/><path fill="#01217d" d="M299.0246 54.919865C299.04782 54.919712 299.07104 54.919567 299.09427 54.919422L300.0 203.68333Z" fill-rule="nonzero"/><path fill="#0a5d64" d="M298.95493 54.920338C298.97815 54.920174 299.00137 54.920017 299.0246 54.919865L300.0 203.68333Z" fill-rule="nonzero"/><path fill="#5e3c05" d="M298.88525 54.920845C298.90848 54.92067 298.9317 54.9205 298.95493 54.920338L300.0 203.68333Z" fill-rule="nonzero"/><path fill="#240c0a" d="M298.81558 54.921383C298.8388 54.921196 298.86203 54.921017 298.88525 54.920845L300.0 203.68333Z" fill-rule="nonzero"/><path fill="#ff1c32" d="M298.67624 54.922558C298.7227 54.922142 298.76913 54.921753 298.81558 54.921383L300.0 203.68333Z" fill-rule="nonzero"/><path fill="#281021" d="M298.5369 54.923862C298.58334 54.923405 298.6298 54.92297 298.67624 54.922558L300.0 203.68333Z" fill-rule="nonzero"/><path fill="#000c31" d="M298.39755 54.925297C298.444 54.924797 298.49045 54.92432 298.5369 54.923862L300.0 203.68333Z" fill-rule="nonzero"/><path fill="#032527" d="M298.18857 54.927696C298.2582 54.926846 298.32788 54.92605 298.39755 54.925297L300.0 203.68333Z" fill-rule="nonzero"/><path fill="#251701" d="M297.97955 54.930386C298.04922 54.92944 298.1189 54.928543 298.18857 54.927696L300.0 203.68333Z" fill-rule="nonzero"/><path fill="#edf8f9" d="M297.77057 54.933372C297.8402 54.932327 297.90988 54.931335 297.97955 54.930386L300.0 203.68333Z" fill-rule="nonzero"/><path fill="#fff0e6" d="M297.56155 54.936653C297.63123 54.93551 297.7009 54.934418 297.77057 54.933372L300.0 203.68333Z" fill-rule="nonzero"/><path fill="#ebf6ee" d="M297.35257 54.940224C297.42224 54.938984 297.4919 54.937794 297.56155 54.936653L300.0 203.68333Z" fill-rule="nonzero"/><path fill="#fff8e6" d="M297.1436 54.94409C297.21326 54.942753 297.28293 54.941463 297.35257 54.940224L300.0 203.68333Z" fill-rule="nonzero"/><path fill="#fdeceb" d="M296.86496 54.949703C296.95782 54.947746 297.05072 54.945873 297.1436 54.94409L300.0 203.68333Z" fill-rule="nonzero"/><path fill="#ecf3fe" d="M296.44702 54.9591C296.58633 54.955772 296.72565 54.95264 296.86496 54.949703L300.0 203.68333Z" fill-rule="nonzero"/><path fill="#b5e5e8" d="M295.8202 54.975395C296.0291 54.969524 296.23807 54.964092 296.44702 54.9591L300.0 203.68333Z" fill-rule="nonzero"/><path fill="#ffc599" d="M295.19342 54.994335C295.40234 54.987583 295.61127 54.98127 295.8202 54.975395L300.0 203.68333Z" fill-rule="nonzero"/><path fill="#aedcba" d="M294.4275 55.021072C294.68277 55.0115 294.93808 55.00259 295.19342 54.994335L300.0 203.68333Z" fill-rule="nonzero"/><path fill="#fde49b" d="M293.6617 55.05175C293.91693 55.040867 294.1722 55.03064 294.4275 55.021072L300.0 203.68333Z" fill-rule="nonzero"/><path fill="#f7b4ae" d="M292.68732 55.096504C293.01205 55.08052 293.33685 55.065605 293.6617 55.05175L300.0 203.68333Z" fill-rule="nonzero"/><path fill="#b3cefb" d="M291.435 55.16343C291.85236 55.139362 292.26978 55.117054 292.68732 55.096504L300.0 203.68333Z" fill-rule="nonzero"/><path fill="#7ed1d7" d="M290.04425 55.250168C290.5077 55.219086 290.97128 55.19017 291.435 55.16343L300.0 203.68333Z" fill-rule="nonzero"/><path fill="#ff994d" d="M285.66968 55.60848C287.12604 55.467533 288.58438 55.348087 290.04425 55.250168L300.0 203.68333Z" fill-rule="nonzero"/><path fill="#71c287" d="M280.75476 56.16675C282.38986 55.953434 284.02838 55.767315 285.66968 55.60848L300.0 203.68333Z" fill-rule="nonzero"/><path fill="#fcd04f" d="M274.55585 57.108723C276.6153 56.75122 278.68207 56.43716 280.75476 56.16675L300.0 203.68333Z" fill-rule="nonzero"/><path fill="#f07b72" d="M261.02548 60.11277C265.48648 58.901756 270.0015 57.899323 274.55585 57.108723L300.0 203.68333Z" fill-rule="nonzero"/><path fill="#7baaf7" d="M224.23323 75.65632C235.74287 68.84487 248.11845 63.61658 261.02548 60.11277L300.0 203.68333Z" fill-rule="nonzero"/><path fill="#46bdc6" d="M192.22766 101.13265C201.67215 91.20726 212.44247 82.634125 224.23323 75.65632L300.0 203.68333Z" fill-rule="nonzero"/><path fill="#ff6d01" d="M162.04333 148.01035C169.06055 130.62183 179.30182 114.716644 192.22766 101.13265L300.0 203.68333Z" fill-rule="nonzero"/><path fill="#34a853" d="M152.05121 219.2614C149.50203 195.05124 152.93307 170.58542 162.04333 148.01035L300.0 203.68333Z" fill-rule="nonzero"/><path fill="#fbbc04" d="M186.4572 299.80594C167.16597 277.0186 155.17763 248.95383 152.05121 219.2614L300.0 203.68333Z" fill-rule="nonzero"/><path fill="#ea4335" d="M367.0291 336.4938C305.59735 367.49826 230.9189 352.32538 186.4572 299.80594L300.0 203.68333Z" fill-rule="nonzero"/><path fill="#1a1a1a" d="M19.346874 68.30729L19.346874 59.697914L20.3 59.697914L20.3 60.49479Q20.64375 60.02604 21.065624 59.791664Q21.503124 59.55729 22.1125 59.55729Q22.909374 59.55729 23.51875 59.96354Q24.128124 60.36979 24.425 61.11979Q24.7375 61.86979 24.7375 62.760414Q24.7375 63.71354 24.39375 64.479164Q24.065624 65.24479 23.409374 65.65104Q22.753124 66.05729 22.034374 66.05729Q21.503124 66.05729 21.08125 65.83854Q20.659374 65.604164 20.39375 65.27604L20.39375 68.30729L19.346874 68.30729ZM20.3 62.83854Q20.3 64.041664 20.784374 64.61979Q21.26875 65.18229 21.95625 65.18229Q22.659374 65.18229 23.159374 64.58854Q23.659374 63.99479 23.659374 62.74479Q23.659374 61.55729 23.175 60.979164Q22.690624 60.385414 22.003124 60.385414Q21.33125 60.385414 20.815624 61.010414Q20.3 61.635414 20.3 62.83854ZM30.596874 63.916664L31.690624 64.041664Q31.440624 64.99479 30.7375 65.52604Q30.034374 66.05729 28.95625 66.05729Q27.596874 66.05729 26.784374 65.21354Q25.9875 64.36979 25.9875 62.854164Q25.9875 61.291664 26.8 60.43229Q27.6125 59.55729 28.89375 59.55729Q30.14375 59.55729 30.925 60.40104Q31.721874 61.24479 31.721874 62.791664Q31.721874 62.885414 31.721874 63.072914L27.08125 63.072914Q27.14375 64.104164 27.659374 64.65104Q28.175 65.18229 28.95625 65.18229Q29.534374 65.18229 29.940624 64.885414Q30.3625 64.572914 30.596874 63.916664ZM27.14375 62.21354L30.6125 62.21354Q30.55 61.416664 30.221874 61.02604Q29.70625 60.416664 28.909374 60.416664Q28.175 60.416664 27.675 60.90104Q27.190624 61.385414 27.14375 62.21354ZM33.33125 65.916664L33.33125 59.697914L34.284374 59.697914L34.284374 60.635414Q34.64375 59.979164 34.940624 59.77604Q35.253124 59.55729 35.628124 59.55729Q36.159374 59.55729 36.70625 59.885414L36.346874 60.86979Q35.95625 60.635414 35.58125 60.635414Q35.221874 60.635414 34.940624 60.854164Q34.675 61.05729 34.565624 61.43229Q34.378124 61.99479 34.378124 62.65104L34.378124 65.916664L33.33125 65.916664ZM36.925 64.05729L37.95625 63.90104Q38.05 64.52604 38.440624 64.854164Q38.846874 65.18229 39.58125 65.18229Q40.3 65.18229 40.64375 64.90104Q41.003124 64.604164 41.003124 64.197914Q41.003124 63.83854 40.690624 63.635414Q40.471874 63.49479 39.6125 63.27604Q38.45625 62.979164 38.003124 62.77604Q37.565624 62.55729 37.33125 62.18229Q37.096874 61.80729 37.096874 61.33854Q37.096874 60.93229 37.284374 60.572914Q37.471874 60.21354 37.8 59.979164Q38.05 59.80729 38.471874 59.68229Q38.89375 59.55729 39.39375 59.55729Q40.1125 59.55729 40.659374 59.77604Q41.221874 59.979164 41.4875 60.33854Q41.753124 60.697914 41.846874 61.291664L40.815624 61.43229Q40.753124 60.96354 40.409374 60.697914Q40.08125 60.416664 39.45625 60.416664Q38.7375 60.416664 38.425 60.666664Q38.1125 60.90104 38.1125 61.229164Q38.1125 61.43229 38.2375 61.58854Q38.378124 61.760414 38.64375 61.86979Q38.8 61.93229 39.58125 62.135414Q40.70625 62.447914 41.14375 62.635414Q41.58125 62.822914 41.83125 63.18229Q42.08125 63.541664 42.08125 64.08854Q42.08125 64.61979 41.76875 65.08854Q41.471874 65.541664 40.89375 65.80729Q40.315624 66.05729 39.58125 66.05729Q38.3625 66.05729 37.721874 65.55729Q37.096874 65.041664 36.925 64.05729Z" fill-rule="nonzero"/><path fill="#9e9e9e" d="M23.01875 82.916664L21.971874 82.916664L21.971874 76.197914Q21.58125 76.55729 20.95625 76.93229Q20.346874 77.291664 19.8625 77.46354L19.8625 76.447914Q20.7375 76.02604 21.39375 75.447914Q22.065624 74.854164 22.346874 74.291664L23.01875 74.291664L23.01875 82.916664ZM26.6125 82.916664L26.6125 81.71354L27.815624 81.71354L27.815624 82.916664Q27.815624 83.572914 27.58125 83.979164Q27.346874 84.40104 26.846874 84.61979L26.55 84.166664Q26.878124 84.02604 27.034374 83.729164Q27.190624 83.447914 27.221874 82.916664L26.6125 82.916664ZM29.05 80.666664L30.159374 80.572914Q30.284374 81.385414 30.721874 81.791664Q31.175 82.197914 31.815624 82.197914Q32.565624 82.197914 33.096874 81.61979Q33.628124 81.041664 33.628124 80.104164Q33.628124 79.197914 33.1125 78.68229Q32.6125 78.15104 31.784374 78.15104Q31.284374 78.15104 30.8625 78.385414Q30.45625 78.61979 30.221874 78.979164L29.2375 78.854164L30.065624 74.447914L34.346874 74.447914L34.346874 75.447914L30.909374 75.447914L30.45625 77.760414Q31.221874 77.21354 32.065624 77.21354Q33.190624 77.21354 33.95625 77.99479Q34.7375 78.77604 34.7375 80.010414Q34.7375 81.166664 34.065624 82.02604Q33.2375 83.05729 31.815624 83.05729Q30.64375 83.05729 29.89375 82.40104Q29.159374 81.74479 29.05 80.666664ZM36.253124 76.385414Q36.253124 75.46354 36.70625 74.822914Q37.175 74.18229 38.05 74.18229Q38.8625 74.18229 39.39375 74.760414Q39.925 75.33854 39.925 76.447914Q39.925 77.541664 39.378124 78.135414Q38.846874 78.71354 38.065624 78.71354Q37.284374 78.71354 36.76875 78.135414Q36.253124 77.55729 36.253124 76.385414ZM38.08125 74.90104Q37.690624 74.90104 37.425 75.24479Q37.175 75.58854 37.175 76.49479Q37.175 77.322914 37.425 77.666664Q37.690624 77.99479 38.08125 77.99479Q38.4875 77.99479 38.7375 77.65104Q39.003124 77.30729 39.003124 76.416664Q39.003124 75.572914 38.7375 75.24479Q38.471874 74.90104 38.08125 74.90104ZM38.08125 83.229164L42.784374 74.18229L43.64375 74.18229L38.95625 83.229164L38.08125 83.229164ZM41.8 80.90104Q41.8 79.979164 42.253124 79.33854Q42.721874 78.697914 43.6125 78.697914Q44.425 78.697914 44.95625 79.27604Q45.4875 79.83854 45.4875 80.96354Q45.4875 82.05729 44.940624 82.65104Q44.409374 83.229164 43.6125 83.229164Q42.846874 83.229164 42.315624 82.65104Q41.8 82.072914 41.8 80.90104ZM43.64375 79.416664Q43.2375 79.416664 42.971874 79.760414Q42.721874 80.104164 42.721874 81.010414Q42.721874 81.822914 42.9875 82.166664Q43.253124 82.510414 43.64375 82.510414Q44.034374 82.510414 44.3 82.166664Q44.565624 81.822914 44.565624 80.916664Q44.565624 80.08854 44.3 79.760414Q44.034374 79.416664 43.64375 79.416664Z" fill-rule="nonzero"/><path stroke="#757575" stroke-width="1.0" stroke-linecap="butt" d="M18.55 70.416664L145.23334 70.416664L269.36786 65.7146" fill-rule="nonzero"/><path fill="#9e9e9e" d="M271.36786 65.7146C271.36786 64.61003 270.47244 63.714603 269.36786 63.714603C268.2633 63.714603 267.36786 64.61003 267.36786 65.7146C267.36786 66.819176 268.2633 67.7146 269.36786 67.7146C270.47244 67.7146 271.36786 66.819176 271.36786 65.7146" fill-rule="nonzero"/><path fill="#1a1a1a" d="M19.14375 97.43229L20.175 97.58854Q20.2375 98.05729 20.534374 98.27604Q20.925 98.572914 21.596874 98.572914Q22.33125 98.572914 22.721874 98.27604Q23.128124 97.979164 23.26875 97.46354Q23.3625 97.135414 23.346874 96.104164Q22.659374 96.916664 21.628124 96.916664Q20.346874 96.916664 19.64375 95.99479Q18.940624 95.05729 18.940624 93.77604Q18.940624 92.885414 19.253124 92.135414Q19.58125 91.36979 20.190624 90.96354Q20.8 90.55729 21.628124 90.55729Q22.7375 90.55729 23.45625 91.447914L23.45625 90.697914L24.425 90.697914L24.425 96.072914Q24.425 97.52604 24.128124 98.135414Q23.83125 98.74479 23.190624 99.08854Q22.55 99.447914 21.6125 99.447914Q20.503124 99.447914 19.815624 98.947914Q19.128124 98.447914 19.14375 97.43229ZM20.01875 93.697914Q20.01875 94.916664 20.503124 95.479164Q20.9875 96.041664 21.721874 96.041664Q22.45625 96.041664 22.940624 95.479164Q23.440624 94.916664 23.440624 93.729164Q23.440624 92.58854 22.925 92.010414Q22.425 91.43229 21.70625 91.43229Q21.003124 91.43229 20.503124 92.010414Q20.01875 92.572914 20.01875 93.697914ZM26.33125 96.916664L26.33125 90.697914L27.284374 90.697914L27.284374 91.635414Q27.64375 90.979164 27.940624 90.77604Q28.253124 90.55729 28.628124 90.55729Q29.159374 90.55729 29.70625 90.885414L29.346874 91.86979Q28.95625 91.635414 28.58125 91.635414Q28.221874 91.635414 27.940624 91.854164Q27.675 92.05729 27.565624 92.43229Q27.378124 92.99479 27.378124 93.65104L27.378124 96.916664L26.33125 96.916664ZM30.346874 89.541664L30.346874 88.322914L31.409374 88.322914L31.409374 89.541664L30.346874 89.541664ZM30.346874 96.916664L30.346874 90.697914L31.409374 90.697914L31.409374 96.916664L30.346874 96.916664ZM32.925 95.05729L33.95625 94.90104Q34.05 95.52604 34.440624 95.854164Q34.846874 96.18229 35.58125 96.18229Q36.3 96.18229 36.64375 95.90104Q37.003124 95.604164 37.003124 95.197914Q37.003124 94.83854 36.690624 94.635414Q36.471874 94.49479 35.6125 94.27604Q34.45625 93.979164 34.003124 93.77604Q33.565624 93.55729 33.33125 93.18229Q33.096874 92.80729 33.096874 92.33854Q33.096874 91.93229 33.284374 91.572914Q33.471874 91.21354 33.8 90.979164Q34.05 90.80729 34.471874 90.68229Q34.89375 90.55729 35.39375 90.55729Q36.1125 90.55729 36.659374 90.77604Q37.221874 90.979164 37.4875 91.33854Q37.753124 91.697914 37.846874 92.291664L36.815624 92.43229Q36.753124 91.96354 36.409374 91.697914Q36.08125 91.416664 35.45625 91.416664Q34.7375 91.416664 34.425 91.666664Q34.1125 91.90104 34.1125 92.229164Q34.1125 92.43229 34.2375 92.58854Q34.378124 92.760414 34.64375 92.86979Q34.8 92.93229 35.58125 93.135414Q36.70625 93.447914 37.14375 93.635414Q37.58125 93.822914 37.83125 94.18229Q38.08125 94.541664 38.08125 95.08854Q38.08125 95.61979 37.76875 96.08854Q37.471874 96.541664 36.89375 96.80729Q36.315624 97.05729 35.58125 97.05729Q34.3625 97.05729 33.721874 96.55729Q33.096874 96.041664 32.925 95.05729Z" fill-rule="nonzero"/><path fill="#9e9e9e" d="M22.425 113.916664L22.425 111.854164L18.70625 111.854164L18.70625 110.885414L22.628124 105.322914L23.4875 105.322914L23.4875 110.885414L24.64375 110.885414L24.64375 111.854164L23.4875 111.854164L23.4875 113.916664L22.425 113.916664ZM22.425 110.885414L22.425 107.02604L19.7375 110.885414L22.425 110.885414ZM26.6125 113.916664L26.6125 112.71354L27.815624 112.71354L27.815624 113.916664Q27.815624 114.572914 27.58125 114.979164Q27.346874 115.40104 26.846874 115.61979L26.55 115.166664Q26.878124 115.02604 27.034374 114.729164Q27.190624 114.447914 27.221874 113.916664L26.6125 113.916664ZM29.05 111.65104L30.1125 111.510414Q30.284374 112.40104 30.721874 112.80729Q31.159374 113.197914 31.784374 113.197914Q32.534374 113.197914 33.05 112.68229Q33.565624 112.166664 33.565624 111.40104Q33.565624 110.68229 33.08125 110.21354Q32.6125 109.729164 31.878124 109.729164Q31.58125 109.729164 31.128124 109.854164L31.253124 108.916664Q31.3625 108.93229 31.425 108.93229Q32.096874 108.93229 32.628124 108.58854Q33.175 108.229164 33.175 107.49479Q33.175 106.916664 32.784374 106.541664Q32.39375 106.15104 31.76875 106.15104Q31.159374 106.15104 30.7375 106.541664Q30.33125 106.93229 30.221874 107.697914L29.159374 107.510414Q29.346874 106.46354 30.034374 105.885414Q30.721874 105.291664 31.7375 105.291664Q32.440624 105.291664 33.034374 105.604164Q33.628124 105.90104 33.940624 106.416664Q34.253124 106.93229 34.253124 107.52604Q34.253124 108.072914 33.95625 108.541664Q33.659374 108.99479 33.08125 109.260414Q33.83125 109.43229 34.253124 109.99479Q34.675 110.541664 34.675 111.385414Q34.675 112.510414 33.846874 113.291664Q33.034374 114.072914 31.784374 114.072914Q30.659374 114.072914 29.909374 113.40104Q29.159374 112.71354 29.05 111.65104ZM36.253124 107.385414Q36.253124 106.46354 36.70625 105.822914Q37.175 105.18229 38.05 105.18229Q38.8625 105.18229 39.39375 105.760414Q39.925 106.33854 39.925 107.447914Q39.925 108.541664 39.378124 109.135414Q38.846874 109.71354 38.065624 109.71354Q37.284374 109.71354 36.76875 109.135414Q36.253124 108.55729 36.253124 107.385414ZM38.08125 105.90104Q37.690624 105.90104 37.425 106.24479Q37.175 106.58854 37.175 107.49479Q37.175 108.322914 37.425 108.666664Q37.690624 108.99479 38.08125 108.99479Q38.4875 108.99479 38.7375 108.65104Q39.003124 108.30729 39.003124 107.416664Q39.003124 106.572914 38.7375 106.24479Q38.471874 105.90104 38.08125 105.90104ZM38.08125 114.229164L42.784374 105.18229L43.64375 105.18229L38.95625 114.229164L38.08125 114.229164ZM41.8 111.90104Q41.8 110.979164 42.253124 110.33854Q42.721874 109.697914 43.6125 109.697914Q44.425 109.697914 44.95625 110.27604Q45.4875 110.83854 45.4875 111.96354Q45.4875 113.05729 44.940624 113.65104Q44.409374 114.229164 43.6125 114.229164Q42.846874 114.229164 42.315624 113.65104Q41.8 113.072914 41.8 111.90104ZM43.64375 110.416664Q43.2375 110.416664 42.971874 110.760414Q42.721874 111.104164 42.721874 112.010414Q42.721874 112.822914 42.9875 113.166664Q43.253124 113.510414 43.64375 113.510414Q44.034374 113.510414 44.3 113.166664Q44.565624 112.822914 44.565624 111.916664Q44.565624 111.08854 44.3 110.760414Q44.034374 110.416664 43.64375 110.416664Z" fill-rule="nonzero"/><path stroke="#757575" stroke-width="1.0" stroke-linecap="butt" d="M18.55 101.416664L145.23334 101.416664L245.00008 73.49614" fill-rule="nonzero"/><path fill="#9e9e9e" d="M247.00008 73.49614C247.00008 72.39157 246.10464 71.49614 245.00008 71.49614C243.89551 71.49614 243.00008 72.39157 243.00008 73.49614C243.00008 74.60071 243.89551 75.49614 245.00008 75.49614C246.10464 75.49614 247.00008 74.60071 247.00008 73.49614" fill-rule="nonzero"/><path fill="#1a1a1a" d="M19.346874 127.916664L19.346874 121.697914L20.284374 121.697914L20.284374 122.572914Q20.971874 121.55729 22.26875 121.55729Q22.83125 121.55729 23.3 121.760414Q23.784374 121.96354 24.01875 122.291664Q24.253124 122.61979 24.346874 123.05729Q24.39375 123.354164 24.39375 124.08854L24.39375 127.916664L23.346874 127.916664L23.346874 124.135414Q23.346874 123.479164 23.221874 123.166664Q23.096874 122.854164 22.784374 122.666664Q22.471874 122.46354 22.05 122.46354Q21.378124 122.46354 20.878124 122.90104Q20.39375 123.322914 20.39375 124.510414L20.39375 127.916664L19.346874 127.916664ZM25.95625 124.80729Q25.95625 123.072914 26.909374 122.24479Q27.70625 121.55729 28.8625 121.55729Q30.14375 121.55729 30.95625 122.40104Q31.784374 123.229164 31.784374 124.71354Q31.784374 125.916664 31.425 126.604164Q31.065624 127.291664 30.3625 127.68229Q29.675 128.05728 28.8625 128.05728Q27.565624 128.05728 26.753124 127.229164Q25.95625 126.385414 25.95625 124.80729ZM27.034374 124.80729Q27.034374 125.99479 27.55 126.58854Q28.08125 127.18229 28.8625 127.18229Q29.659374 127.18229 30.175 126.58854Q30.690624 125.99479 30.690624 124.77604Q30.690624 123.61979 30.159374 123.02604Q29.64375 122.43229 28.8625 122.43229Q28.08125 122.43229 27.55 123.02604Q27.034374 123.604164 27.034374 124.80729ZM33.346874 120.541664L33.346874 119.322914L34.409374 119.322914L34.409374 120.541664L33.346874 120.541664ZM33.346874 127.916664L33.346874 121.697914L34.409374 121.697914L34.409374 127.916664L33.346874 127.916664ZM35.925 126.05729L36.95625 125.90104Q37.05 126.52604 37.440624 126.854164Q37.846874 127.18229 38.58125 127.18229Q39.3 127.18229 39.64375 126.90104Q40.003124 126.604164 40.003124 126.197914Q40.003124 125.83854 39.690624 125.635414Q39.471874 125.49479 38.6125 125.27604Q37.45625 124.979164 37.003124 124.77604Q36.565624 124.55729 36.33125 124.18229Q36.096874 123.80729 36.096874 123.33854Q36.096874 122.93229 36.284374 122.572914Q36.471874 122.21354 36.8 121.979164Q37.05 121.80729 37.471874 121.68229Q37.89375 121.55729 38.39375 121.55729Q39.1125 121.55729 39.659374 121.77604Q40.221874 121.979164 40.4875 122.33854Q40.753124 122.697914 40.846874 123.291664L39.815624 123.43229Q39.753124 122.96354 39.409374 122.697914Q39.08125 122.416664 38.45625 122.416664Q37.7375 122.416664 37.425 122.666664Q37.1125 122.90104 37.1125 123.229164Q37.1125 123.43229 37.2375 123.58854Q37.378124 123.760414 37.64375 123.86979Q37.8 123.93229 38.58125 124.135414Q39.70625 124.447914 40.14375 124.635414Q40.58125 124.822914 40.83125 125.18229Q41.08125 125.541664 41.08125 126.08854Q41.08125 126.61979 40.76875 127.08854Q40.471874 127.541664 39.89375 127.80729Q39.315624 128.05728 38.58125 128.05728Q37.3625 128.05728 36.721874 127.55729Q36.096874 127.041664 35.925 126.05729ZM47.596874 125.916664L48.690624 126.041664Q48.440624 126.99479 47.7375 127.52604Q47.034374 128.05728 45.95625 128.05728Q44.596874 128.05728 43.784374 127.21354Q42.9875 126.36979 42.9875 124.854164Q42.9875 123.291664 43.8 122.43229Q44.6125 121.55729 45.89375 121.55729Q47.14375 121.55729 47.925 122.40104Q48.721874 123.24479 48.721874 124.791664Q48.721874 124.885414 48.721874 125.072914L44.08125 125.072914Q44.14375 126.104164 44.659374 126.65104Q45.175 127.18229 45.95625 127.18229Q46.534374 127.18229 46.940624 126.885414Q47.3625 126.572914 47.596874 125.916664ZM44.14375 124.21354L47.6125 124.21354Q47.55 123.416664 47.221874 123.02604Q46.70625 122.416664 45.909374 122.416664Q45.175 122.416664 44.675 122.90104Q44.190624 123.385414 44.14375 124.21354ZM52.64375 126.979164L52.8 127.90104Q52.346874 127.99479 52.003124 127.99479Q51.425 127.99479 51.1125 127.822914Q50.8 127.635414 50.659374 127.33854Q50.534374 127.041664 50.534374 126.08854L50.534374 122.510414L49.76875 122.510414L49.76875 121.697914L50.534374 121.697914L50.534374 120.15104L51.58125 119.52604L51.58125 121.697914L52.64375 121.697914L52.64375 122.510414L51.58125 122.510414L51.58125 126.15104Q51.58125 126.604164 51.628124 126.729164Q51.690624 126.854164 51.815624 126.93229Q51.940624 127.010414 52.175 127.010414Q52.3625 127.010414 52.64375 126.979164ZM55.64375 126.979164L55.8 127.90104Q55.346874 127.99479 55.003124 127.99479Q54.425 127.99479 54.1125 127.822914Q53.8 127.635414 53.659374 127.33854Q53.534374 127.041664 53.534374 126.08854L53.534374 122.510414L52.76875 122.510414L52.76875 121.697914L53.534374 121.697914L53.534374 120.15104L54.58125 119.52604L54.58125 121.697914L55.64375 121.697914L55.64375 122.510414L54.58125 122.510414L54.58125 126.15104Q54.58125 126.604164 54.628124 126.729164Q54.690624 126.854164 54.815624 126.93229Q54.940624 127.010414 55.175 127.010414Q55.3625 127.010414 55.64375 126.979164ZM60.596874 125.916664L61.690624 126.041664Q61.440624 126.99479 60.7375 127.52604Q60.034374 128.05728 58.95625 128.05728Q57.596874 128.05728 56.784374 127.21354Q55.9875 126.36979 55.9875 124.854164Q55.9875 123.291664 56.8 122.43229Q57.6125 121.55729 58.89375 121.55729Q60.14375 121.55729 60.925 122.40104Q61.721874 123.24479 61.721874 124.791664Q61.721874 124.885414 61.721874 125.072914L57.08125 125.072914Q57.14375 126.104164 57.659374 126.65104Q58.175 127.18229 58.95625 127.18229Q59.534374 127.18229 59.940624 126.885414Q60.3625 126.572914 60.596874 125.916664ZM57.14375 124.21354L60.6125 124.21354Q60.55 123.416664 60.221874 123.02604Q59.70625 122.416664 58.909374 122.416664Q58.175 122.416664 57.675 122.90104Q57.190624 123.385414 57.14375 124.21354Z" fill-rule="nonzero"/><path fill="#9e9e9e" d="M22.425 144.91667L22.425 142.85417L18.70625 142.85417L18.70625 141.88542L22.628124 136.32292L23.4875 136.32292L23.4875 141.88542L24.64375 141.88542L24.64375 142.85417L23.4875 142.85417L23.4875 144.91667L22.425 144.91667ZM22.425 141.88542L22.425 138.02605L19.7375 141.88542L22.425 141.88542ZM26.6125 144.91667L26.6125 143.71355L27.815624 143.71355L27.815624 144.91667Q27.815624 145.57292 27.58125 145.97917Q27.346874 146.40105 26.846874 146.6198L26.55 146.16667Q26.878124 146.02605 27.034374 145.72917Q27.190624 145.44792 27.221874 144.91667L26.6125 144.91667ZM32.425 144.91667L32.425 142.85417L28.70625 142.85417L28.70625 141.88542L32.628124 136.32292L33.4875 136.32292L33.4875 141.88542L34.64375 141.88542L34.64375 142.85417L33.4875 142.85417L33.4875 144.91667L32.425 144.91667ZM32.425 141.88542L32.425 138.02605L29.7375 141.88542L32.425 141.88542ZM36.253124 138.38542Q36.253124 137.46355 36.70625 136.82292Q37.175 136.1823 38.05 136.1823Q38.8625 136.1823 39.39375 136.76042Q39.925 137.33855 39.925 138.44792Q39.925 139.54167 39.378124 140.13542Q38.846874 140.71355 38.065624 140.71355Q37.284374 140.71355 36.76875 140.13542Q36.253124 139.5573 36.253124 138.38542ZM38.08125 136.90105Q37.690624 136.90105 37.425 137.2448Q37.175 137.58855 37.175 138.4948Q37.175 139.32292 37.425 139.66667Q37.690624 139.9948 38.08125 139.9948Q38.4875 139.9948 38.7375 139.65105Q39.003124 139.3073 39.003124 138.41667Q39.003124 137.57292 38.7375 137.2448Q38.471874 136.90105 38.08125 136.90105ZM38.08125 145.22917L42.784374 136.1823L43.64375 136.1823L38.95625 145.22917L38.08125 145.22917ZM41.8 142.90105Q41.8 141.97917 42.253124 141.33855Q42.721874 140.69792 43.6125 140.69792Q44.425 140.69792 44.95625 141.27605Q45.4875 141.83855 45.4875 142.96355Q45.4875 144.0573 44.940624 144.65105Q44.409374 145.22917 43.6125 145.22917Q42.846874 145.22917 42.315624 144.65105Q41.8 144.07292 41.8 142.90105ZM43.64375 141.41667Q43.2375 141.41667 42.971874 141.76042Q42.721874 142.10417 42.721874 143.01042Q42.721874 143.82292 42.9875 144.16667Q43.253124 144.51042 43.64375 144.51042Q44.034374 144.51042 44.3 144.16667Q44.565624 143.82292 44.565624 142.91667Q44.565624 142.08855 44.3 141.76042Q44.034374 141.41667 43.64375 141.41667Z" fill-rule="nonzero"/><path stroke="#757575" stroke-width="1.0" stroke-linecap="butt" d="M18.55 132.41667L145.23334 132.41667L211.98306 93.10885" fill-rule="nonzero"/><path fill="#9e9e9e" d="M213.98306 93.10885C213.98306 92.00428 213.08763 91.10885 211.98306 91.10885C210.8785 91.10885 209.98306 92.00428 209.98306 93.10885C209.98306 94.21342 210.8785 95.10885 211.98306 95.10885C213.08763 95.10885 213.98306 94.21342 213.98306 93.10885" fill-rule="nonzero"/><path fill="#1a1a1a" d="M19.346874 158.91667L19.346874 152.69792L20.284374 152.69792L20.284374 153.57292Q20.971874 152.5573 22.26875 152.5573Q22.83125 152.5573 23.3 152.76042Q23.784374 152.96355 24.01875 153.29167Q24.253124 153.6198 24.346874 154.0573Q24.39375 154.35417 24.39375 155.08855L24.39375 158.91667L23.346874 158.91667L23.346874 155.13542Q23.346874 154.47917 23.221874 154.16667Q23.096874 153.85417 22.784374 153.66667Q22.471874 153.46355 22.05 153.46355Q21.378124 153.46355 20.878124 153.90105Q20.39375 154.32292 20.39375 155.51042L20.39375 158.91667L19.346874 158.91667ZM25.95625 155.8073Q25.95625 154.07292 26.909374 153.2448Q27.70625 152.5573 28.8625 152.5573Q30.14375 152.5573 30.95625 153.40105Q31.784374 154.22917 31.784374 155.71355Q31.784374 156.91667 31.425 157.60417Q31.065624 158.29167 30.3625 158.6823Q29.675 159.0573 28.8625 159.0573Q27.565624 159.0573 26.753124 158.22917Q25.95625 157.38542 25.95625 155.8073ZM27.034374 155.8073Q27.034374 156.9948 27.55 157.58855Q28.08125 158.1823 28.8625 158.1823Q29.659374 158.1823 30.175 157.58855Q30.690624 156.9948 30.690624 155.77605Q30.690624 154.6198 30.159374 154.02605Q29.64375 153.4323 28.8625 153.4323Q28.08125 153.4323 27.55 154.02605Q27.034374 154.60417 27.034374 155.8073ZM33.346874 151.54167L33.346874 150.32292L34.409374 150.32292L34.409374 151.54167L33.346874 151.54167ZM33.346874 158.91667L33.346874 152.69792L34.409374 152.69792L34.409374 158.91667L33.346874 158.91667ZM36.33125 158.91667L36.33125 152.69792L37.284374 152.69792L37.284374 153.63542Q37.64375 152.97917 37.940624 152.77605Q38.253124 152.5573 38.628124 152.5573Q39.159374 152.5573 39.70625 152.88542L39.346874 153.8698Q38.95625 153.63542 38.58125 153.63542Q38.221874 153.63542 37.940624 153.85417Q37.675 154.0573 37.565624 154.4323Q37.378124 154.9948 37.378124 155.65105L37.378124 158.91667L36.33125 158.91667Z" fill-rule="nonzero"/><path fill="#9e9e9e" d="M24.51875 169.4323L23.471874 169.51042Q23.33125 168.88542 23.08125 168.60417Q22.64375 168.15105 22.01875 168.15105Q21.51875 168.15105 21.128124 168.4323Q20.64375 168.8073 20.346874 169.51042Q20.065624 170.19792 20.05 171.47917Q20.425 170.90105 20.971874 170.6198Q21.534374 170.33855 22.14375 170.33855Q23.190624 170.33855 23.925 171.1198Q24.675 171.90105 24.675 173.1198Q24.675 173.9323 24.315624 174.63542Q23.971874 175.32292 23.3625 175.69792Q22.753124 176.0573 21.9875 176.0573Q20.659374 176.0573 19.83125 175.08855Q19.003124 174.1198 19.003124 171.90105Q19.003124 169.40105 19.925 168.27605Q20.721874 167.29167 22.08125 167.29167Q23.096874 167.29167 23.7375 167.8698Q24.39375 168.4323 24.51875 169.4323ZM20.221874 173.13542Q20.221874 173.6823 20.440624 174.1823Q20.675 174.66667 21.08125 174.9323Q21.503124 175.19792 21.971874 175.19792Q22.628124 175.19792 23.1125 174.66667Q23.596874 174.1198 23.596874 173.19792Q23.596874 172.3073 23.1125 171.79167Q22.64375 171.27605 21.925 171.27605Q21.20625 171.27605 20.70625 171.79167Q20.221874 172.3073 20.221874 173.13542ZM26.6125 175.91667L26.6125 174.71355L27.815624 174.71355L27.815624 175.91667Q27.815624 176.57292 27.58125 176.97917Q27.346874 177.40105 26.846874 177.6198L26.55 177.16667Q26.878124 177.02605 27.034374 176.72917Q27.190624 176.44792 27.221874 175.91667L26.6125 175.91667ZM29.05 171.6823Q29.05 170.15105 29.3625 169.22917Q29.675 168.29167 30.284374 167.79167Q30.909374 167.29167 31.846874 167.29167Q32.534374 167.29167 33.05 167.57292Q33.58125 167.85417 33.925 168.38542Q34.26875 168.90105 34.45625 169.65105Q34.64375 170.40105 34.64375 171.6823Q34.64375 173.19792 34.33125 174.1198Q34.034374 175.04167 33.409374 175.5573Q32.8 176.0573 31.846874 176.0573Q30.6125 176.0573 29.89375 175.16667Q29.05 174.10417 29.05 171.6823ZM30.128124 171.6823Q30.128124 173.79167 30.628124 174.4948Q31.128124 175.19792 31.846874 175.19792Q32.58125 175.19792 33.065624 174.4948Q33.565624 173.79167 33.565624 171.6823Q33.565624 169.5573 33.065624 168.8698Q32.58125 168.16667 31.83125 168.16667Q31.1125 168.16667 30.675 168.77605Q30.128124 169.5573 30.128124 171.6823ZM36.253124 169.38542Q36.253124 168.46355 36.70625 167.82292Q37.175 167.1823 38.05 167.1823Q38.8625 167.1823 39.39375 167.76042Q39.925 168.33855 39.925 169.44792Q39.925 170.54167 39.378124 171.13542Q38.846874 171.71355 38.065624 171.71355Q37.284374 171.71355 36.76875 171.13542Q36.253124 170.5573 36.253124 169.38542ZM38.08125 167.90105Q37.690624 167.90105 37.425 168.2448Q37.175 168.58855 37.175 169.4948Q37.175 170.32292 37.425 170.66667Q37.690624 170.9948 38.08125 170.9948Q38.4875 170.9948 38.7375 170.65105Q39.003124 170.3073 39.003124 169.41667Q39.003124 168.57292 38.7375 168.2448Q38.471874 167.90105 38.08125 167.90105ZM38.08125 176.22917L42.784374 167.1823L43.64375 167.1823L38.95625 176.22917L38.08125 176.22917ZM41.8 173.90105Q41.8 172.97917 42.253124 172.33855Q42.721874 171.69792 43.6125 171.69792Q44.425 171.69792 44.95625 172.27605Q45.4875 172.83855 45.4875 173.96355Q45.4875 175.0573 44.940624 175.65105Q44.409374 176.22917 43.6125 176.22917Q42.846874 176.22917 42.315624 175.65105Q41.8 175.07292 41.8 173.90105ZM43.64375 172.41667Q43.2375 172.41667 42.971874 172.76042Q42.721874 173.10417 42.721874 174.01042Q42.721874 174.82292 42.9875 175.16667Q43.253124 175.51042 43.64375 175.51042Q44.034374 175.51042 44.3 175.16667Q44.565624 174.82292 44.565624 173.91667Q44.565624 173.08855 44.3 172.76042Q44.034374 172.41667 43.64375 172.41667Z" fill-rule="nonzero"/><path stroke="#757575" stroke-width="1.0" stroke-linecap="butt" d="M18.55 163.41667L145.23334 163.41667L181.17378 127.17173" fill-rule="nonzero"/><path fill="#9e9e9e" d="M183.17378 127.17173C183.17378 126.067154 182.27835 125.17173 181.17378 125.17173C180.0692 125.17173 179.17378 126.067154 179.17378 127.17173C179.17378 128.27629 180.0692 129.17172 181.17378 129.17172C182.27835 129.17172 183.17378 128.27629 183.17378 127.17173" fill-rule="nonzero"/><path fill="#1a1a1a" d="M21.065624 189.91667L18.70625 183.69792L19.815624 183.69792L21.159374 187.41667Q21.3625 188.02605 21.55 188.66667Q21.690624 188.1823 21.940624 187.4948L23.33125 183.69792L24.409374 183.69792L22.05 189.91667L21.065624 189.91667ZM28.596874 187.91667L29.690624 188.04167Q29.440624 188.9948 28.7375 189.52605Q28.034374 190.0573 26.95625 190.0573Q25.596874 190.0573 24.784374 189.21355Q23.9875 188.3698 23.9875 186.85417Q23.9875 185.29167 24.8 184.4323Q25.6125 183.5573 26.89375 183.5573Q28.14375 183.5573 28.925 184.40105Q29.721874 185.2448 29.721874 186.79167Q29.721874 186.88542 29.721874 187.07292L25.08125 187.07292Q25.14375 188.10417 25.659374 188.65105Q26.175 189.1823 26.95625 189.1823Q27.534374 189.1823 27.940624 188.88542Q28.3625 188.57292 28.596874 187.91667ZM25.14375 186.21355L28.6125 186.21355Q28.55 185.41667 28.221874 185.02605Q27.70625 184.41667 26.909374 184.41667Q26.175 184.41667 25.675 184.90105Q25.190624 185.38542 25.14375 186.21355ZM31.33125 189.91667L31.33125 183.69792L32.284374 183.69792L32.284374 184.63542Q32.64375 183.97917 32.940624 183.77605Q33.253124 183.5573 33.628124 183.5573Q34.159374 183.5573 34.70625 183.88542L34.346874 184.8698Q33.95625 184.63542 33.58125 184.63542Q33.221874 184.63542 32.940624 184.85417Q32.675 185.0573 32.565624 185.4323Q32.378124 185.9948 32.378124 186.65105L32.378124 189.91667L31.33125 189.91667ZM37.64375 188.97917L37.8 189.90105Q37.346874 189.9948 37.003124 189.9948Q36.425 189.9948 36.1125 189.82292Q35.8 189.63542 35.659374 189.33855Q35.534374 189.04167 35.534374 188.08855L35.534374 184.51042L34.76875 184.51042L34.76875 183.69792L35.534374 183.69792L35.534374 182.15105L36.58125 181.52605L36.58125 183.69792L37.64375 183.69792L37.64375 184.51042L36.58125 184.51042L36.58125 188.15105Q36.58125 188.60417 36.628124 188.72917Q36.690624 188.85417 36.815624 188.9323Q36.940624 189.01042 37.175 189.01042Q37.3625 189.01042 37.64375 188.97917Z" fill-rule="nonzero"/><path fill="#9e9e9e" d="M19.1125 199.44792L19.1125 198.4323L24.675 198.4323L24.675 199.26042Q23.8625 200.13542 23.05 201.58855Q22.253124 203.02605 21.815624 204.5573Q21.4875 205.63542 21.409374 206.91667L20.315624 206.91667Q20.33125 205.90105 20.70625 204.46355Q21.096874 203.02605 21.8 201.69792Q22.51875 200.3698 23.33125 199.44792L19.1125 199.44792ZM26.6125 206.91667L26.6125 205.71355L27.815624 205.71355L27.815624 206.91667Q27.815624 207.57292 27.58125 207.97917Q27.346874 208.40105 26.846874 208.6198L26.55 208.16667Q26.878124 208.02605 27.034374 207.72917Q27.190624 207.44792 27.221874 206.91667L26.6125 206.91667ZM30.675 202.26042Q30.01875 202.01042 29.690624 201.57292Q29.378124 201.1198 29.378124 200.51042Q29.378124 199.57292 30.05 198.9323Q30.7375 198.29167 31.846874 198.29167Q32.971874 198.29167 33.659374 198.94792Q34.346874 199.60417 34.346874 200.54167Q34.346874 201.13542 34.034374 201.57292Q33.721874 202.01042 33.08125 202.26042Q33.878124 202.51042 34.284374 203.08855Q34.690624 203.66667 34.690624 204.46355Q34.690624 205.5573 33.909374 206.3073Q33.14375 207.0573 31.8625 207.0573Q30.596874 207.0573 29.815624 206.3073Q29.034374 205.5573 29.034374 204.4323Q29.034374 203.58855 29.45625 203.02605Q29.89375 202.46355 30.675 202.26042ZM30.45625 200.46355Q30.45625 201.07292 30.846874 201.46355Q31.253124 201.85417 31.878124 201.85417Q32.4875 201.85417 32.878124 201.47917Q33.26875 201.08855 33.26875 200.52605Q33.26875 199.94792 32.8625 199.5573Q32.45625 199.15105 31.8625 199.15105Q31.253124 199.15105 30.846874 199.54167Q30.45625 199.9323 30.45625 200.46355ZM30.128124 204.4323Q30.128124 204.88542 30.33125 205.3073Q30.55 205.72917 30.971874 205.96355Q31.39375 206.19792 31.878124 206.19792Q32.628124 206.19792 33.1125 205.71355Q33.6125 205.22917 33.6125 204.47917Q33.6125 203.71355 33.1125 203.21355Q32.6125 202.71355 31.846874 202.71355Q31.096874 202.71355 30.6125 203.21355Q30.128124 203.69792 30.128124 204.4323ZM36.253124 200.38542Q36.253124 199.46355 36.70625 198.82292Q37.175 198.1823 38.05 198.1823Q38.8625 198.1823 39.39375 198.76042Q39.925 199.33855 39.925 200.44792Q39.925 201.54167 39.378124 202.13542Q38.846874 202.71355 38.065624 202.71355Q37.284374 202.71355 36.76875 202.13542Q36.253124 201.5573 36.253124 200.38542ZM38.08125 198.90105Q37.690624 198.90105 37.425 199.2448Q37.175 199.58855 37.175 200.4948Q37.175 201.32292 37.425 201.66667Q37.690624 201.9948 38.08125 201.9948Q38.4875 201.9948 38.7375 201.65105Q39.003124 201.3073 39.003124 200.41667Q39.003124 199.57292 38.7375 199.2448Q38.471874 198.90105 38.08125 198.90105ZM38.08125 207.22917L42.784374 198.1823L43.64375 198.1823L38.95625 207.22917L38.08125 207.22917ZM41.8 204.90105Q41.8 203.97917 42.253124 203.33855Q42.721874 202.69792 43.6125 202.69792Q44.425 202.69792 44.95625 203.27605Q45.4875 203.83855 45.4875 204.96355Q45.4875 206.0573 44.940624 206.65105Q44.409374 207.22917 43.6125 207.22917Q42.846874 207.22917 42.315624 206.65105Q41.8 206.07292 41.8 204.90105ZM43.64375 203.41667Q43.2375 203.41667 42.971874 203.76042Q42.721874 204.10417 42.721874 205.01042Q42.721874 205.82292 42.9875 206.16667Q43.253124 206.51042 43.64375 206.51042Q44.034374 206.51042 44.3 206.16667Q44.565624 205.82292 44.565624 204.91667Q44.565624 204.08855 44.3 203.76042Q44.034374 203.41667 43.64375 203.41667Z" fill-rule="nonzero"/><path stroke="#757575" stroke-width="1.0" stroke-linecap="butt" d="M18.55 194.41667L145.23334 194.41667L160.04123 184.05574" fill-rule="nonzero"/><path fill="#9e9e9e" d="M162.04123 184.05574C162.04123 182.95117 161.14581 182.05574 160.04123 182.05574C158.93666 182.05574 158.04123 182.95117 158.04123 184.05574C158.04123 185.16031 158.93666 186.05574 160.04123 186.05574C161.14581 186.05574 162.04123 185.16031 162.04123 184.05574" fill-rule="nonzero"/><path fill="#1a1a1a" d="M19.346874 254.70108L19.346874 248.48233L20.284374 248.48233L20.284374 249.35733Q20.58125 248.88858 21.065624 248.62296Q21.55 248.3417 22.175 248.3417Q22.8625 248.3417 23.3 248.62296Q23.753124 248.9042 23.925 249.41983Q24.675 248.3417 25.846874 248.3417Q26.784374 248.3417 27.26875 248.85733Q27.76875 249.35733 27.76875 250.43546L27.76875 254.70108L26.721874 254.70108L26.721874 250.7792Q26.721874 250.1542 26.6125 249.87296Q26.51875 249.5917 26.253124 249.41983Q25.9875 249.24796 25.6125 249.24796Q24.95625 249.24796 24.51875 249.68546Q24.096874 250.12296 24.096874 251.0917L24.096874 254.70108L23.034374 254.70108L23.034374 250.6542Q23.034374 249.95108 22.76875 249.60733Q22.51875 249.24796 21.940624 249.24796Q21.4875 249.24796 21.1125 249.48233Q20.7375 249.7167 20.565624 250.16983Q20.39375 250.62296 20.39375 251.4667L20.39375 254.70108L19.346874 254.70108ZM34.409374 253.93546Q33.815624 254.43546 33.26875 254.63858Q32.7375 254.8417 32.1125 254.8417Q31.08125 254.8417 30.534374 254.3417Q29.9875 253.8417 29.9875 253.06046Q29.9875 252.60733 30.190624 252.23233Q30.39375 251.8417 30.7375 251.62296Q31.08125 251.38858 31.503124 251.2792Q31.8 251.18546 32.440624 251.10733Q33.70625 250.9667 34.315624 250.74796Q34.315624 250.5292 34.315624 250.48233Q34.315624 249.82608 34.01875 249.56046Q33.6125 249.2167 32.815624 249.2167Q32.08125 249.2167 31.721874 249.48233Q31.3625 249.73233 31.190624 250.38858L30.159374 250.24796Q30.3 249.5917 30.628124 249.18546Q30.95625 248.7792 31.565624 248.56046Q32.175 248.3417 32.971874 248.3417Q33.76875 248.3417 34.26875 248.5292Q34.76875 248.7167 35.003124 248.99796Q35.2375 249.2792 35.33125 249.7167Q35.378124 249.98233 35.378124 250.68546L35.378124 252.0917Q35.378124 253.56046 35.440624 253.95108Q35.51875 254.3417 35.721874 254.70108L34.6125 254.70108Q34.45625 254.37296 34.409374 253.93546ZM34.315624 251.57608Q33.7375 251.81046 32.596874 251.98233Q31.940624 252.07608 31.675 252.20108Q31.409374 252.31046 31.253124 252.5292Q31.1125 252.74796 31.1125 253.0292Q31.1125 253.45108 31.425 253.73233Q31.753124 254.01358 32.3625 254.01358Q32.971874 254.01358 33.440624 253.74796Q33.925 253.48233 34.14375 253.01358Q34.315624 252.6542 34.315624 251.9667L34.315624 251.57608ZM37.33125 254.70108L37.33125 248.48233L38.284374 248.48233L38.284374 249.41983Q38.64375 248.76358 38.940624 248.56046Q39.253124 248.3417 39.628124 248.3417Q40.159374 248.3417 40.70625 248.66983L40.346874 249.6542Q39.95625 249.41983 39.58125 249.41983Q39.221874 249.41983 38.940624 249.63858Q38.675 249.8417 38.565624 250.2167Q38.378124 250.7792 38.378124 251.43546L38.378124 254.70108L37.33125 254.70108ZM41.33125 254.70108L41.33125 248.48233L42.284374 248.48233L42.284374 249.41983Q42.64375 248.76358 42.940624 248.56046Q43.253124 248.3417 43.628124 248.3417Q44.159374 248.3417 44.70625 248.66983L44.346874 249.6542Q43.95625 249.41983 43.58125 249.41983Q43.221874 249.41983 42.940624 249.63858Q42.675 249.8417 42.565624 250.2167Q42.378124 250.7792 42.378124 251.43546L42.378124 254.70108L41.33125 254.70108ZM44.95625 251.5917Q44.95625 249.85733 45.909374 249.0292Q46.70625 248.3417 47.8625 248.3417Q49.14375 248.3417 49.95625 249.18546Q50.784374 250.01358 50.784374 251.49796Q50.784374 252.70108 50.425 253.38858Q50.065624 254.07608 49.3625 254.4667Q48.675 254.8417 47.8625 254.8417Q46.565624 254.8417 45.753124 254.01358Q44.95625 253.16983 44.95625 251.5917ZM46.034374 251.5917Q46.034374 252.7792 46.55 253.37296Q47.08125 253.9667 47.8625 253.9667Q48.659374 253.9667 49.175 253.37296Q49.690624 252.7792 49.690624 251.56046Q49.690624 250.4042 49.159374 249.81046Q48.64375 249.2167 47.8625 249.2167Q47.08125 249.2167 46.55 249.81046Q46.034374 250.38858 46.034374 251.5917ZM52.346874 254.70108L52.346874 248.48233L53.284374 248.48233L53.284374 249.35733Q53.971874 248.3417 55.26875 248.3417Q55.83125 248.3417 56.3 248.54483Q56.784374 248.74796 57.01875 249.07608Q57.253124 249.4042 57.346874 249.8417Q57.39375 250.13858 57.39375 250.87296L57.39375 254.70108L56.346874 254.70108L56.346874 250.91983Q56.346874 250.26358 56.221874 249.95108Q56.096874 249.63858 55.784374 249.45108Q55.471874 249.24796 55.05 249.24796Q54.378124 249.24796 53.878124 249.68546Q53.39375 250.10733 53.39375 251.29483L53.39375 254.70108L52.346874 254.70108ZM62.596874 254.70108L62.596874 249.29483L61.659374 249.29483L61.659374 248.48233L62.596874 248.48233L62.596874 247.81046Q62.596874 247.18546 62.70625 246.88858Q62.8625 246.4667 63.2375 246.2167Q63.628124 245.9667 64.31563 245.9667Q64.76875 245.9667 65.3 246.07608L65.14375 246.98233Q64.81563 246.93546 64.51875 246.93546Q64.03438 246.93546 63.83125 247.13858Q63.64375 247.3417 63.64375 247.9042L63.64375 248.48233L64.8625 248.48233L64.8625 249.29483L63.64375 249.29483L63.64375 254.70108L62.596874 254.70108ZM64.95625 251.5917Q64.95625 249.85733 65.90938 249.0292Q66.70625 248.3417 67.8625 248.3417Q69.14375 248.3417 69.95625 249.18546Q70.78438 250.01358 70.78438 251.49796Q70.78438 252.70108 70.425 253.38858Q70.06563 254.07608 69.3625 254.4667Q68.675 254.8417 67.8625 254.8417Q66.56563 254.8417 65.75313 254.01358Q64.95625 253.16983 64.95625 251.5917ZM66.03438 251.5917Q66.03438 252.7792 66.55 253.37296Q67.08125 253.9667 67.8625 253.9667Q68.65938 253.9667 69.175 253.37296Q69.69063 252.7792 69.69063 251.56046Q69.69063 250.4042 69.15938 249.81046Q68.64375 249.2167 67.8625 249.2167Q67.08125 249.2167 66.55 249.81046Q66.03438 250.38858 66.03438 251.5917ZM72.34688 254.70108L72.34688 248.48233L73.28438 248.48233L73.28438 249.35733Q73.97188 248.3417 75.26875 248.3417Q75.83125 248.3417 76.3 248.54483Q76.78438 248.74796 77.01875 249.07608Q77.25313 249.4042 77.34688 249.8417Q77.39375 250.13858 77.39375 250.87296L77.39375 254.70108L76.34688 254.70108L76.34688 250.91983Q76.34688 250.26358 76.22188 249.95108Q76.09688 249.63858 75.78438 249.45108Q75.47188 249.24796 75.05 249.24796Q74.37813 249.24796 73.87813 249.68546Q73.39375 250.10733 73.39375 251.29483L73.39375 254.70108L72.34688 254.70108ZM83.40938 252.41983L84.44063 252.56046Q84.26875 253.62296 83.56563 254.23233Q82.8625 254.8417 81.84688 254.8417Q80.56563 254.8417 79.78438 254.01358Q79.01875 253.16983 79.01875 251.60733Q79.01875 250.60733 79.34688 249.85733Q79.69063 249.0917 80.3625 248.7167Q81.05 248.3417 81.8625 248.3417Q82.8625 248.3417 83.50313 248.85733Q84.15938 249.35733 84.34688 250.31046L83.31563 250.4667Q83.175 249.8417 82.8 249.5292Q82.425 249.20108 81.89375 249.20108Q81.09688 249.20108 80.59688 249.7792Q80.09688 250.3417 80.09688 251.57608Q80.09688 252.8417 80.58125 253.4042Q81.06563 253.9667 81.83125 253.9667Q82.45625 253.9667 82.8625 253.5917Q83.28438 253.2167 83.40938 252.41983ZM89.59688 252.70108L90.69063 252.82608Q90.44063 253.7792 89.7375 254.31046Q89.03438 254.8417 87.95625 254.8417Q86.59688 254.8417 85.78438 253.99796Q84.9875 253.1542 84.9875 251.63858Q84.9875 250.07608 85.8 249.2167Q86.6125 248.3417 87.89375 248.3417Q89.14375 248.3417 89.925 249.18546Q90.72188 250.0292 90.72188 251.57608Q90.72188 251.66983 90.72188 251.85733L86.08125 251.85733Q86.14375 252.88858 86.65938 253.43546Q87.175 253.9667 87.95625 253.9667Q88.53438 253.9667 88.94063 253.66983Q89.3625 253.35733 89.59688 252.70108ZM86.14375 250.99796L89.6125 250.99796Q89.55 250.20108 89.22188 249.81046Q88.70625 249.20108 87.90938 249.20108Q87.175 249.20108 86.675 249.68546Q86.19063 250.16983 86.14375 250.99796ZM87.26875 247.70108L88.05 246.06046L89.44063 246.06046L88.14375 247.70108L87.26875 247.70108Z" fill-rule="nonzero"/><path fill="#9e9e9e" d="M19.20625 269.7167L20.221874 269.62296Q20.346874 270.3417 20.70625 270.66983Q21.08125 270.98233 21.64375 270.98233Q22.128124 270.98233 22.4875 270.76358Q22.8625 270.5292 23.096874 270.16983Q23.33125 269.79483 23.4875 269.16983Q23.64375 268.5292 23.64375 267.87296Q23.64375 267.79483 23.64375 267.6542Q23.33125 268.1542 22.784374 268.48233Q22.2375 268.79483 21.596874 268.79483Q20.51875 268.79483 19.784374 268.0292Q19.05 267.24796 19.05 265.98233Q19.05 264.66983 19.815624 263.87296Q20.596874 263.07608 21.753124 263.07608Q22.58125 263.07608 23.26875 263.5292Q23.971874 263.98233 24.33125 264.82608Q24.690624 265.6542 24.690624 267.23233Q24.690624 268.87296 24.33125 269.85733Q23.9875 270.82608 23.26875 271.3417Q22.565624 271.8417 21.628124 271.8417Q20.6125 271.8417 19.971874 271.29483Q19.33125 270.73233 19.20625 269.7167ZM23.51875 265.91983Q23.51875 265.01358 23.034374 264.48233Q22.565624 263.95108 21.878124 263.95108Q21.175 263.95108 20.64375 264.5292Q20.128124 265.0917 20.128124 266.01358Q20.128124 266.82608 20.628124 267.3417Q21.128124 267.85733 21.846874 267.85733Q22.58125 267.85733 23.05 267.3417Q23.51875 266.82608 23.51875 265.91983ZM26.6125 271.70108L26.6125 270.49796L27.815624 270.49796L27.815624 271.70108Q27.815624 272.35733 27.58125 272.76358Q27.346874 273.18546 26.846874 273.4042L26.55 272.95108Q26.878124 272.81046 27.034374 272.51358Q27.190624 272.23233 27.221874 271.70108L26.6125 271.70108ZM29.05 269.45108L30.159374 269.35733Q30.284374 270.16983 30.721874 270.57608Q31.175 270.98233 31.815624 270.98233Q32.565624 270.98233 33.096874 270.4042Q33.628124 269.82608 33.628124 268.88858Q33.628124 267.98233 33.1125 267.4667Q32.6125 266.93546 31.784374 266.93546Q31.284374 266.93546 30.8625 267.16983Q30.45625 267.4042 30.221874 267.76358L29.2375 267.63858L30.065624 263.23233L34.346874 263.23233L34.346874 264.23233L30.909374 264.23233L30.45625 266.54483Q31.221874 265.99796 32.065624 265.99796Q33.190624 265.99796 33.95625 266.7792Q34.7375 267.56046 34.7375 268.79483Q34.7375 269.95108 34.065624 270.81046Q33.2375 271.8417 31.815624 271.8417Q30.64375 271.8417 29.89375 271.18546Q29.159374 270.5292 29.05 269.45108ZM36.253124 265.16983Q36.253124 264.24796 36.70625 263.60733Q37.175 262.9667 38.05 262.9667Q38.8625 262.9667 39.39375 263.54483Q39.925 264.12296 39.925 265.23233Q39.925 266.32608 39.378124 266.91983Q38.846874 267.49796 38.065624 267.49796Q37.284374 267.49796 36.76875 266.91983Q36.253124 266.3417 36.253124 265.16983ZM38.08125 263.68546Q37.690624 263.68546 37.425 264.0292Q37.175 264.37296 37.175 265.2792Q37.175 266.10733 37.425 266.45108Q37.690624 266.7792 38.08125 266.7792Q38.4875 266.7792 38.7375 266.43546Q39.003124 266.0917 39.003124 265.20108Q39.003124 264.35733 38.7375 264.0292Q38.471874 263.68546 38.08125 263.68546ZM38.08125 272.01358L42.784374 262.9667L43.64375 262.9667L38.95625 272.01358L38.08125 272.01358ZM41.8 269.68546Q41.8 268.76358 42.253124 268.12296Q42.721874 267.48233 43.6125 267.48233Q44.425 267.48233 44.95625 268.06046Q45.4875 268.62296 45.4875 269.74796Q45.4875 270.8417 44.940624 271.43546Q44.409374 272.01358 43.6125 272.01358Q42.846874 272.01358 42.315624 271.43546Q41.8 270.85733 41.8 269.68546ZM43.64375 268.20108Q43.2375 268.20108 42.971874 268.54483Q42.721874 268.88858 42.721874 269.79483Q42.721874 270.60733 42.9875 270.95108Q43.253124 271.29483 43.64375 271.29483Q44.034374 271.29483 44.3 270.95108Q44.565624 270.60733 44.565624 269.70108Q44.565624 268.87296 44.3 268.54483Q44.034374 268.20108 43.64375 268.20108Z" fill-rule="nonzero"/><path stroke="#757575" stroke-width="1.0" stroke-linecap="butt" d="M18.55 259.20108L145.23334 259.20108L170.03278 259.20108" fill-rule="nonzero"/><path fill="#9e9e9e" d="M172.03278 259.20108C172.03278 258.09653 171.13736 257.20108 170.03278 257.20108C168.9282 257.20108 168.03278 258.09653 168.03278 259.20108C168.03278 260.30566 168.9282 261.20108 170.03278 261.20108C171.13736 261.20108 172.03278 260.30566 172.03278 259.20108" fill-rule="nonzero"/><path fill="#1a1a1a" d="M20.315624 332.45L19.33125 332.45L19.33125 323.85626L20.39375 323.85626L20.39375 326.91876Q21.065624 326.09064 22.096874 326.09064Q22.675 326.09064 23.175 326.325Q23.690624 326.54376 24.01875 326.96564Q24.3625 327.3875 24.55 327.98126Q24.7375 328.575 24.7375 329.2469Q24.7375 330.84064 23.940624 331.71564Q23.14375 332.59064 22.05 332.59064Q20.940624 332.59064 20.315624 331.66876L20.315624 332.45ZM20.3 329.29376Q20.3 330.40314 20.6125 330.90314Q21.1125 331.71564 21.95625 331.71564Q22.64375 331.71564 23.14375 331.1219Q23.659374 330.52814 23.659374 329.325Q23.659374 328.10626 23.175 327.52814Q22.690624 326.95 22.003124 326.95Q21.315624 326.95 20.8 327.5594Q20.3 328.15314 20.3 329.29376ZM26.315624 332.45L26.315624 323.85626L27.378124 323.85626L27.378124 332.45L26.315624 332.45ZM33.596874 330.45L34.690624 330.575Q34.440624 331.52814 33.7375 332.0594Q33.034374 332.59064 31.95625 332.59064Q30.596874 332.59064 29.784374 331.7469Q28.9875 330.90314 28.9875 329.3875Q28.9875 327.825 29.8 326.96564Q30.6125 326.09064 31.89375 326.09064Q33.14375 326.09064 33.925 326.9344Q34.721874 327.77814 34.721874 329.325Q34.721874 329.41876 34.721874 329.60626L30.08125 329.60626Q30.14375 330.6375 30.659374 331.1844Q31.175 331.71564 31.95625 331.71564Q32.534374 331.71564 32.940624 331.41876Q33.3625 331.10626 33.596874 330.45ZM30.14375 328.7469L33.6125 328.7469Q33.55 327.95 33.221874 327.5594Q32.70625 326.95 31.909374 326.95Q31.175 326.95 30.675 327.4344Q30.190624 327.91876 30.14375 328.7469ZM40.425 332.45L40.425 331.52814Q39.690624 332.59064 38.440624 332.59064Q37.89375 332.59064 37.409374 332.3875Q36.940624 332.16876 36.70625 331.85626Q36.471874 331.52814 36.378124 331.0594Q36.315624 330.7625 36.315624 330.075L36.315624 326.23126L37.378124 326.23126L37.378124 329.6844Q37.378124 330.4969 37.440624 330.79376Q37.534374 331.2 37.846874 331.45Q38.175 331.6844 38.659374 331.6844Q39.128124 331.6844 39.534374 331.45Q39.95625 331.2 40.128124 330.77814Q40.315624 330.35626 40.315624 329.5594L40.315624 326.23126L41.3625 326.23126L41.3625 332.45L40.425 332.45Z" fill-rule="nonzero"/><path fill="#9e9e9e" d="M24.596874 348.4344L24.596874 349.45L18.909374 349.45Q18.909374 349.075 19.034374 348.71564Q19.253124 348.1375 19.721874 347.575Q20.20625 347.0125 21.1125 346.27814Q22.51875 345.1219 23.003124 344.45Q23.503124 343.77814 23.503124 343.1844Q23.503124 342.5594 23.05 342.1375Q22.596874 341.7 21.878124 341.7Q21.1125 341.7 20.659374 342.15314Q20.20625 342.60626 20.190624 343.41876L19.1125 343.3094Q19.221874 342.09064 19.940624 341.46564Q20.675 340.825 21.909374 340.825Q23.14375 340.825 23.8625 341.5125Q24.58125 342.2 24.58125 343.21564Q24.58125 343.73126 24.3625 344.23126Q24.159374 344.71564 23.659374 345.27814Q23.175 345.825 22.05 346.77814Q21.096874 347.575 20.815624 347.8719Q20.55 348.15314 20.378124 348.4344L24.596874 348.4344ZM30.01875 349.45L28.971874 349.45L28.971874 342.73126Q28.58125 343.09064 27.95625 343.46564Q27.346874 343.825 26.8625 343.9969L26.8625 342.98126Q27.7375 342.5594 28.39375 341.98126Q29.065624 341.3875 29.346874 340.825L30.01875 340.825L30.01875 349.45ZM33.6125 349.45L33.6125 348.2469L34.815624 348.2469L34.815624 349.45Q34.815624 350.10626 34.58125 350.5125Q34.346874 350.9344 33.846874 351.15314L33.55 350.7Q33.878124 350.5594 34.034374 350.2625Q34.190624 349.98126 34.221874 349.45L33.6125 349.45ZM36.05 347.1844L37.1125 347.04376Q37.284374 347.9344 37.721874 348.34064Q38.159374 348.73126 38.784374 348.73126Q39.534374 348.73126 40.05 348.21564Q40.565624 347.7 40.565624 346.9344Q40.565624 346.21564 40.08125 345.7469Q39.6125 345.2625 38.878124 345.2625Q38.58125 345.2625 38.128124 345.3875L38.253124 344.45Q38.3625 344.46564 38.425 344.46564Q39.096874 344.46564 39.628124 344.1219Q40.175 343.7625 40.175 343.02814Q40.175 342.45 39.784374 342.075Q39.39375 341.6844 38.76875 341.6844Q38.159374 341.6844 37.7375 342.075Q37.33125 342.46564 37.221874 343.23126L36.159374 343.04376Q36.346874 341.9969 37.034374 341.41876Q37.721874 340.825 38.7375 340.825Q39.440624 340.825 40.034374 341.1375Q40.628124 341.4344 40.940624 341.95Q41.253124 342.46564 41.253124 343.0594Q41.253124 343.60626 40.95625 344.075Q40.659374 344.52814 40.08125 344.79376Q40.83125 344.96564 41.253124 345.52814Q41.675 346.075 41.675 346.91876Q41.675 348.04376 40.846874 348.825Q40.034374 349.60626 38.784374 349.60626Q37.659374 349.60626 36.909374 348.9344Q36.159374 348.2469 36.05 347.1844ZM43.253124 342.91876Q43.253124 341.9969 43.70625 341.35626Q44.175 340.71564 45.05 340.71564Q45.8625 340.71564 46.39375 341.29376Q46.925 341.8719 46.925 342.98126Q46.925 344.075 46.378124 344.66876Q45.846874 345.2469 45.065624 345.2469Q44.284374 345.2469 43.76875 344.66876Q43.253124 344.09064 43.253124 342.91876ZM45.08125 341.4344Q44.690624 341.4344 44.425 341.77814Q44.175 342.1219 44.175 343.02814Q44.175 343.85626 44.425 344.2Q44.690624 344.52814 45.08125 344.52814Q45.4875 344.52814 45.7375 344.1844Q46.003124 343.84064 46.003124 342.95Q46.003124 342.10626 45.7375 341.77814Q45.471874 341.4344 45.08125 341.4344ZM45.08125 349.7625L49.784374 340.71564L50.64375 340.71564L45.95625 349.7625L45.08125 349.7625ZM48.8 347.4344Q48.8 346.5125 49.253124 345.8719Q49.721874 345.23126 50.6125 345.23126Q51.425 345.23126 51.95625 345.8094Q52.4875 346.3719 52.4875 347.4969Q52.4875 348.59064 51.940624 349.1844Q51.409374 349.7625 50.6125 349.7625Q49.846874 349.7625 49.315624 349.1844Q48.8 348.60626 48.8 347.4344ZM50.64375 345.95Q50.2375 345.95 49.971874 346.29376Q49.721874 346.6375 49.721874 347.54376Q49.721874 348.35626 49.9875 348.7Q50.253124 349.04376 50.64375 349.04376Q51.034374 349.04376 51.3 348.7Q51.565624 348.35626 51.565624 347.45Q51.565624 346.6219 51.3 346.29376Q51.034374 345.95 50.64375 345.95Z" fill-rule="nonzero"/><path stroke="#757575" stroke-width="1.0" stroke-linecap="butt" d="M18.55 336.95L145.23334 336.95L271.8604 342.18195" fill-rule="nonzero"/><path fill="#9e9e9e" d="M273.8604 342.18195C273.8604 341.07736 272.965 340.18195 271.8604 340.18195C270.75586 340.18195 269.8604 341.07736 269.8604 342.18195C269.8604 343.2865 270.75586 344.18195 271.8604 344.18195C272.965 344.18195 273.8604 343.2865 273.8604 342.18195" fill-rule="nonzero"/><path fill="#1a1a1a" d="M558.21564 166.45483L557.23126 166.45483L557.23126 157.86108L558.29376 157.86108L558.29376 160.92358Q558.96564 160.09546 559.9969 160.09546Q560.575 160.09546 561.075 160.32983Q561.59064 160.54858 561.91876 160.97046Q562.2625 161.39233 562.45 161.98608Q562.6375 162.57983 562.6375 163.25171Q562.6375 164.84546 561.84064 165.72046Q561.04376 166.59546 559.95 166.59546Q558.84064 166.59546 558.21564 165.67358L558.21564 166.45483ZM558.2 163.29858Q558.2 164.40796 558.5125 164.90796Q559.0125 165.72046 559.85626 165.72046Q560.54376 165.72046 561.04376 165.12671Q561.5594 164.53296 561.5594 163.32983Q561.5594 162.11108 561.075 161.53296Q560.59064 160.95483 559.90314 160.95483Q559.21564 160.95483 558.7 161.56421Q558.2 162.15796 558.2 163.29858ZM564.23126 166.45483L564.23126 160.23608L565.1844 160.23608L565.1844 161.17358Q565.54376 160.51733 565.84064 160.31421Q566.15314 160.09546 566.52814 160.09546Q567.0594 160.09546 567.60626 160.42358L567.2469 161.40796Q566.85626 161.17358 566.48126 161.17358Q566.1219 161.17358 565.84064 161.39233Q565.575 161.59546 565.46564 161.97046Q565.27814 162.53296 565.27814 163.18921L565.27814 166.45483L564.23126 166.45483ZM572.325 166.45483L572.325 165.53296Q571.59064 166.59546 570.34064 166.59546Q569.79376 166.59546 569.3094 166.39233Q568.84064 166.17358 568.60626 165.86108Q568.3719 165.53296 568.27814 165.06421Q568.21564 164.76733 568.21564 164.07983L568.21564 160.23608L569.27814 160.23608L569.27814 163.68921Q569.27814 164.50171 569.34064 164.79858Q569.4344 165.20483 569.7469 165.45483Q570.075 165.68921 570.5594 165.68921Q571.02814 165.68921 571.4344 165.45483Q571.85626 165.20483 572.02814 164.78296Q572.21564 164.36108 572.21564 163.56421L572.21564 160.23608L573.2625 160.23608L573.2625 166.45483L572.325 166.45483ZM575.2469 166.45483L575.2469 160.23608L576.1844 160.23608L576.1844 161.11108Q576.8719 160.09546 578.16876 160.09546Q578.73126 160.09546 579.2 160.29858Q579.6844 160.50171 579.91876 160.82983Q580.15314 161.15796 580.2469 161.59546Q580.29376 161.89233 580.29376 162.62671L580.29376 166.45483L579.2469 166.45483L579.2469 162.67358Q579.2469 162.01733 579.1219 161.70483Q578.9969 161.39233 578.6844 161.20483Q578.3719 161.00171 577.95 161.00171Q577.27814 161.00171 576.77814 161.43921Q576.29376 161.86108 576.29376 163.04858L576.29376 166.45483L575.2469 166.45483Z" fill-rule="nonzero"/><path fill="#9e9e9e" d="M550.325 183.45483L550.325 181.39233L546.60626 181.39233L546.60626 180.42358L550.52814 174.86108L551.3875 174.86108L551.3875 180.42358L552.54376 180.42358L552.54376 181.39233L551.3875 181.39233L551.3875 183.45483L550.325 183.45483ZM550.325 180.42358L550.325 176.56421L547.6375 180.42358L550.325 180.42358ZM559.4969 182.43921L559.4969 183.45483L553.8094 183.45483Q553.8094 183.07983 553.9344 182.72046Q554.15314 182.14233 554.6219 181.57983Q555.10626 181.01733 556.0125 180.28296Q557.41876 179.12671 557.90314 178.45483Q558.40314 177.78296 558.40314 177.18921Q558.40314 176.56421 557.95 176.14233Q557.4969 175.70483 556.77814 175.70483Q556.0125 175.70483 555.5594 176.15796Q555.10626 176.61108 555.09064 177.42358L554.0125 177.31421Q554.1219 176.09546 554.84064 175.47046Q555.575 174.82983 556.8094 174.82983Q558.04376 174.82983 558.7625 175.51733Q559.48126 176.20483 559.48126 177.22046Q559.48126 177.73608 559.2625 178.23608Q559.0594 178.72046 558.5594 179.28296Q558.075 179.82983 556.95 180.78296Q555.9969 181.57983 555.71564 181.87671Q555.45 182.15796 555.27814 182.43921L559.4969 182.43921ZM561.5125 183.45483L561.5125 182.25171L562.71564 182.25171L562.71564 183.45483Q562.71564 184.11108 562.48126 184.51733Q562.2469 184.93921 561.7469 185.15796L561.45 184.70483Q561.77814 184.56421 561.9344 184.26733Q562.09064 183.98608 562.1219 183.45483L561.5125 183.45483ZM569.41876 176.97046L568.3719 177.04858Q568.23126 176.42358 567.98126 176.14233Q567.54376 175.68921 566.91876 175.68921Q566.41876 175.68921 566.02814 175.97046Q565.54376 176.34546 565.2469 177.04858Q564.96564 177.73608 564.95 179.01733Q565.325 178.43921 565.8719 178.15796Q566.4344 177.87671 567.04376 177.87671Q568.09064 177.87671 568.825 178.65796Q569.575 179.43921 569.575 180.65796Q569.575 181.47046 569.21564 182.17358Q568.8719 182.86108 568.2625 183.23608Q567.65314 183.59546 566.8875 183.59546Q565.5594 183.59546 564.73126 182.62671Q563.90314 181.65796 563.90314 179.43921Q563.90314 176.93921 564.825 175.81421Q565.6219 174.82983 566.98126 174.82983Q567.9969 174.82983 568.6375 175.40796Q569.29376 175.97046 569.41876 176.97046ZM565.1219 180.67358Q565.1219 181.22046 565.34064 181.72046Q565.575 182.20483 565.98126 182.47046Q566.40314 182.73608 566.8719 182.73608Q567.52814 182.73608 568.0125 182.20483Q568.4969 181.65796 568.4969 180.73608Q568.4969 179.84546 568.0125 179.32983Q567.54376 178.81421 566.825 178.81421Q566.10626 178.81421 565.60626 179.32983Q565.1219 179.84546 565.1219 180.67358ZM571.15314 176.92358Q571.15314 176.00171 571.60626 175.36108Q572.075 174.72046 572.95 174.72046Q573.7625 174.72046 574.29376 175.29858Q574.825 175.87671 574.825 176.98608Q574.825 178.07983 574.27814 178.67358Q573.7469 179.25171 572.96564 179.25171Q572.1844 179.25171 571.66876 178.67358Q571.15314 178.09546 571.15314 176.92358ZM572.98126 175.43921Q572.59064 175.43921 572.325 175.78296Q572.075 176.12671 572.075 177.03296Q572.075 177.86108 572.325 178.20483Q572.59064 178.53296 572.98126 178.53296Q573.3875 178.53296 573.6375 178.18921Q573.90314 177.84546 573.90314 176.95483Q573.90314 176.11108 573.6375 175.78296Q573.3719 175.43921 572.98126 175.43921ZM572.98126 183.76733L577.6844 174.72046L578.54376 174.72046L573.85626 183.76733L572.98126 183.76733ZM576.7 181.43921Q576.7 180.51733 577.15314 179.87671Q577.6219 179.23608 578.5125 179.23608Q579.325 179.23608 579.85626 179.81421Q580.3875 180.37671 580.3875 181.50171Q580.3875 182.59546 579.84064 183.18921Q579.3094 183.76733 578.5125 183.76733Q577.7469 183.76733 577.21564 183.18921Q576.7 182.61108 576.7 181.43921ZM578.54376 179.95483Q578.1375 179.95483 577.8719 180.29858Q577.6219 180.64233 577.6219 181.54858Q577.6219 182.36108 577.8875 182.70483Q578.15314 183.04858 578.54376 183.04858Q578.9344 183.04858 579.2 182.70483Q579.46564 182.36108 579.46564 181.45483Q579.46564 180.62671 579.2 180.29858Q578.9344 179.95483 578.54376 179.95483Z" fill-rule="nonzero"/><path stroke="#757575" stroke-width="1.0" stroke-linecap="butt" d="M581.45 170.95483L454.76666 170.95483L437.4865 170.95483" fill-rule="nonzero"/><path fill="#9e9e9e" d="M439.4865 170.95483C439.4865 169.85025 438.5911 168.95483 437.4865 168.95483C436.38196 168.95483 435.4865 169.85025 435.4865 170.95483C435.4865 172.0594 436.38196 172.95483 437.4865 172.95483C438.5911 172.95483 439.4865 172.0594 439.4865 170.95483" fill-rule="nonzero"/><path fill="#757575" d="M30.315624 32.534374L32.20625 33.003124Q31.6125 35.346874 30.065624 36.58125Q28.51875 37.8 26.26875 37.8Q23.95625 37.8 22.503124 36.8625Q21.065624 35.909374 20.3 34.128124Q19.55 32.33125 19.55 30.284374Q19.55 28.05 20.39375 26.39375Q21.253124 24.721874 22.83125 23.8625Q24.409374 22.9875 26.3 22.9875Q28.45625 22.9875 29.909374 24.08125Q31.378124 25.175 31.95625 27.159374L30.096874 27.596874Q29.596874 26.034374 28.64375 25.33125Q27.70625 24.6125 26.26875 24.6125Q24.6125 24.6125 23.503124 25.409374Q22.39375 26.190624 21.940624 27.534374Q21.503124 28.8625 21.503124 30.26875Q21.503124 32.096874 22.034374 33.471874Q22.565624 34.83125 23.690624 35.503124Q24.815624 36.175 26.1125 36.175Q27.70625 36.175 28.815624 35.253124Q29.925 34.33125 30.315624 32.534374ZM33.221874 32.3625Q33.221874 29.4875 34.815624 28.096874Q36.159374 26.940624 38.08125 26.940624Q40.221874 26.940624 41.565624 28.346874Q42.925 29.753124 42.925 32.221874Q42.925 34.221874 42.33125 35.378124Q41.7375 36.51875 40.58125 37.159374Q39.440624 37.784374 38.08125 37.784374Q35.89375 37.784374 34.55 36.39375Q33.221874 34.9875 33.221874 32.3625ZM35.01875 32.3625Q35.01875 34.3625 35.878124 35.346874Q36.753124 36.33125 38.08125 36.33125Q39.39375 36.33125 40.253124 35.346874Q41.128124 34.346874 41.128124 32.3Q41.128124 30.378124 40.253124 29.39375Q39.378124 28.39375 38.08125 28.39375Q36.753124 28.39375 35.878124 29.39375Q35.01875 30.378124 35.01875 32.3625ZM51.659374 37.55L51.659374 36.01875Q50.45625 37.784374 48.378124 37.784374Q47.45625 37.784374 46.659374 37.440624Q45.8625 37.08125 45.471874 36.55Q45.096874 36.01875 44.940624 35.2375Q44.83125 34.721874 44.83125 33.596874L44.83125 27.175L46.58125 27.175L46.58125 32.925Q46.58125 34.3 46.690624 34.784374Q46.8625 35.471874 47.39375 35.878124Q47.940624 36.26875 48.721874 36.26875Q49.51875 36.26875 50.20625 35.8625Q50.909374 35.45625 51.190624 34.76875Q51.4875 34.065624 51.4875 32.7375L51.4875 27.175L53.2375 27.175L53.2375 37.55L51.659374 37.55ZM54.83125 37.55L54.83125 23.2375L56.58125 23.2375L56.58125 37.55L54.83125 37.55ZM65.97188 34.20625L67.78438 34.440624Q67.3625 36.01875 66.19063 36.909374Q65.03438 37.784374 63.221874 37.784374Q60.95625 37.784374 59.6125 36.39375Q58.284374 34.9875 58.284374 32.45625Q58.284374 29.83125 59.628124 28.39375Q60.971874 26.940624 63.128124 26.940624Q65.20625 26.940624 66.51875 28.3625Q67.84688 29.76875 67.84688 32.346874Q67.84688 32.503124 67.83125 32.815624L60.096874 32.815624Q60.190624 34.51875 61.065624 35.425Q61.940624 36.33125 63.2375 36.33125Q64.20625 36.33125 64.87813 35.83125Q65.56563 35.315624 65.97188 34.20625ZM60.190624 31.3625L65.9875 31.3625Q65.87813 30.065624 65.33125 29.409374Q64.4875 28.39375 63.14375 28.39375Q61.940624 28.39375 61.1125 29.20625Q60.284374 30.003124 60.190624 31.3625ZM76.65938 37.55L76.65938 36.01875Q75.45625 37.784374 73.37813 37.784374Q72.45625 37.784374 71.65938 37.440624Q70.8625 37.08125 70.47188 36.55Q70.09688 36.01875 69.94063 35.2375Q69.83125 34.721874 69.83125 33.596874L69.83125 27.175L71.58125 27.175L71.58125 32.925Q71.58125 34.3 71.69063 34.784374Q71.8625 35.471874 72.39375 35.878124Q72.94063 36.26875 73.72188 36.26875Q74.51875 36.26875 75.20625 35.8625Q75.90938 35.45625 76.19063 34.76875Q76.4875 34.065624 76.4875 32.7375L76.4875 27.175L78.2375 27.175L78.2375 37.55L76.65938 37.55ZM79.84688 37.55L79.84688 27.175L81.425 27.175L81.425 28.753124Q82.03438 27.64375 82.55 27.3Q83.06563 26.940624 83.675 26.940624Q84.56563 26.940624 85.4875 27.503124L84.87813 29.14375Q84.2375 28.753124 83.59688 28.753124Q83.01875 28.753124 82.55 29.1125Q82.09688 29.45625 81.89375 30.065624Q81.6125 31.003124 81.6125 32.1125L81.6125 37.55L79.84688 37.55ZM86.15938 34.45625L87.90938 34.175Q88.05 35.221874 88.72188 35.784374Q89.39375 36.33125 90.59688 36.33125Q91.8 36.33125 92.37813 35.846874Q92.97188 35.346874 92.97188 34.690624Q92.97188 34.096874 92.45625 33.753124Q92.09688 33.51875 90.65938 33.159374Q88.72188 32.659374 87.97188 32.315624Q87.2375 31.95625 86.84688 31.33125Q86.45625 30.690624 86.45625 29.925Q86.45625 29.2375 86.76875 28.64375Q87.09688 28.05 87.64375 27.659374Q88.05 27.3625 88.75313 27.159374Q89.47188 26.940624 90.28438 26.940624Q91.50313 26.940624 92.425 27.3Q93.34688 27.64375 93.78438 28.253124Q94.22188 28.846874 94.39375 29.846874L92.675 30.08125Q92.55 29.284374 91.9875 28.846874Q91.425 28.39375 90.40938 28.39375Q89.19063 28.39375 88.675 28.8Q88.15938 29.190624 88.15938 29.721874Q88.15938 30.065624 88.37813 30.346874Q88.58125 30.628124 89.05 30.815624Q89.31563 30.909374 90.59688 31.253124Q92.47188 31.753124 93.20625 32.08125Q93.94063 32.39375 94.3625 33.003124Q94.78438 33.596874 94.78438 34.503124Q94.78438 35.378124 94.26875 36.159374Q93.75313 36.940624 92.78438 37.3625Q91.81563 37.784374 90.59688 37.784374Q88.58125 37.784374 87.51875 36.940624Q86.45625 36.096874 86.15938 34.45625ZM109.59688 37.55L109.59688 36.2375Q108.6125 37.784374 106.69063 37.784374Q105.45625 37.784374 104.40938 37.096874Q103.37813 36.409374 102.8 35.190624Q102.2375 33.971874 102.2375 32.378124Q102.2375 30.815624 102.75313 29.55Q103.26875 28.284374 104.3 27.6125Q105.34688 26.940624 106.6125 26.940624Q107.55 26.940624 108.28438 27.346874Q109.01875 27.7375 109.4875 28.3625L109.4875 23.2375L111.22188 23.2375L111.22188 37.55L109.59688 37.55ZM104.03438 32.378124Q104.03438 34.3625 104.87813 35.346874Q105.72188 36.33125 106.8625 36.33125Q108.01875 36.33125 108.81563 35.39375Q109.62813 34.45625 109.62813 32.51875Q109.62813 30.39375 108.8 29.39375Q107.9875 28.39375 106.78438 28.39375Q105.6125 28.39375 104.81563 29.3625Q104.03438 30.315624 104.03438 32.378124ZM120.97188 34.20625L122.78438 34.440624Q122.3625 36.01875 121.19063 36.909374Q120.03438 37.784374 118.22188 37.784374Q115.95625 37.784374 114.6125 36.39375Q113.28438 34.9875 113.28438 32.45625Q113.28438 29.83125 114.62813 28.39375Q115.97188 26.940624 118.12813 26.940624Q120.20625 26.940624 121.51875 28.3625Q122.84688 29.76875 122.84688 32.346874Q122.84688 32.503124 122.83125 32.815624L115.09688 32.815624Q115.19063 34.51875 116.06563 35.425Q116.94063 36.33125 118.2375 36.33125Q119.20625 36.33125 119.87813 35.83125Q120.56563 35.315624 120.97188 34.20625ZM115.19063 31.3625L120.9875 31.3625Q120.87813 30.065624 120.33125 29.409374Q119.4875 28.39375 118.14375 28.39375Q116.94063 28.39375 116.1125 29.20625Q115.28438 30.003124 115.19063 31.3625ZM124.15938 34.45625L125.90938 34.175Q126.05 35.221874 126.72188 35.784374Q127.39375 36.33125 128.59688 36.33125Q129.8 36.33125 130.37813 35.846874Q130.97188 35.346874 130.97188 34.690624Q130.97188 34.096874 130.45625 33.753124Q130.09688 33.51875 128.65938 33.159374Q126.72188 32.659374 125.97188 32.315624Q125.2375 31.95625 124.84688 31.33125Q124.45625 30.690624 124.45625 29.925Q124.45625 29.2375 124.76875 28.64375Q125.09688 28.05 125.64375 27.659374Q126.05 27.3625 126.75313 27.159374Q127.47188 26.940624 128.28438 26.940624Q129.50313 26.940624 130.425 27.3Q131.34688 27.64375 131.78438 28.253124Q132.22188 28.846874 132.39375 29.846874L130.675 30.08125Q130.55 29.284374 129.9875 28.846874Q129.425 28.39375 128.40938 28.39375Q127.19063 28.39375 126.675 28.8Q126.15938 29.190624 126.15938 29.721874Q126.15938 30.065624 126.37813 30.346874Q126.58125 30.628124 127.05 30.815624Q127.31563 30.909374 128.59688 31.253124Q130.47188 31.753124 131.20625 32.08125Q131.94063 32.39375 132.3625 33.003124Q132.78438 33.596874 132.78438 34.503124Q132.78438 35.378124 132.26875 36.159374Q131.75313 36.940624 130.78438 37.3625Q129.81563 37.784374 128.59688 37.784374Q126.58125 37.784374 125.51875 36.940624Q124.45625 36.096874 124.15938 34.45625ZM140.78438 41.55L140.59688 39.89375Q141.175 40.05 141.59688 40.05Q142.19063 40.05 142.53438 39.846874Q142.89375 39.659374 143.1125 39.315624Q143.28438 39.05 143.65938 38.003124Q143.70625 37.846874 143.81563 37.565624L139.87813 27.175L141.76875 27.175L143.925 33.190624Q144.34688 34.33125 144.675 35.58125Q144.9875 34.378124 145.39375 33.221874L147.6125 27.175L149.37813 27.175L145.425 37.721874Q144.8 39.440624 144.44063 40.08125Q143.97188 40.95625 143.3625 41.346874Q142.76875 41.753124 141.925 41.753124Q141.40938 41.753124 140.78438 41.55ZM157.97188 34.20625L159.78438 34.440624Q159.3625 36.01875 158.19063 36.909374Q157.03438 37.784374 155.22188 37.784374Q152.95625 37.784374 151.6125 36.39375Q150.28438 34.9875 150.28438 32.45625Q150.28438 29.83125 151.62813 28.39375Q152.97188 26.940624 155.12813 26.940624Q157.20625 26.940624 158.51875 28.3625Q159.84688 29.76875 159.84688 32.346874Q159.84688 32.503124 159.83125 32.815624L152.09688 32.815624Q152.19063 34.51875 153.06563 35.425Q153.94063 36.33125 155.2375 36.33125Q156.20625 36.33125 156.87813 35.83125Q157.56563 35.315624 157.97188 34.20625ZM152.19063 31.3625L157.9875 31.3625Q157.87813 30.065624 157.33125 29.409374Q156.4875 28.39375 155.14375 28.39375Q153.94063 28.39375 153.1125 29.20625Q152.28438 30.003124 152.19063 31.3625ZM168.65938 37.55L168.65938 36.01875Q167.45625 37.784374 165.37813 37.784374Q164.45625 37.784374 163.65938 37.440624Q162.8625 37.08125 162.47188 36.55Q162.09688 36.01875 161.94063 35.2375Q161.83125 34.721874 161.83125 33.596874L161.83125 27.175L163.58125 27.175L163.58125 32.925Q163.58125 34.3 163.69063 34.784374Q163.8625 35.471874 164.39375 35.878124Q164.94063 36.26875 165.72188 36.26875Q166.51875 36.26875 167.20625 35.8625Q167.90938 35.45625 168.19063 34.76875Q168.4875 34.065624 168.4875 32.7375L168.4875 27.175L170.2375 27.175L170.2375 37.55L168.65938 37.55ZM170.69063 37.55L174.4875 32.159374L170.9875 27.175L173.175 27.175L174.76875 29.6125Q175.22188 30.3 175.4875 30.76875Q175.925 30.128124 176.28438 29.628124L178.03438 27.175L180.12813 27.175L176.55 32.065624L180.40938 37.55L178.25313 37.55L176.1125 34.33125L175.55 33.45625L172.83125 37.55L170.69063 37.55ZM186.83125 37.55L186.83125 23.2375L188.58125 23.2375L188.58125 37.55L186.83125 37.55ZM197.97188 34.20625L199.78438 34.440624Q199.3625 36.01875 198.19063 36.909374Q197.03438 37.784374 195.22188 37.784374Q192.95625 37.784374 191.6125 36.39375Q190.28438 34.9875 190.28438 32.45625Q190.28438 29.83125 191.62813 28.39375Q192.97188 26.940624 195.12813 26.940624Q197.20625 26.940624 198.51875 28.3625Q199.84688 29.76875 199.84688 32.346874Q199.84688 32.503124 199.83125 32.815624L192.09688 32.815624Q192.19063 34.51875 193.06563 35.425Q193.94063 36.33125 195.2375 36.33125Q196.20625 36.33125 196.87813 35.83125Q197.56563 35.315624 197.97188 34.20625ZM192.19063 31.3625L197.9875 31.3625Q197.87813 30.065624 197.33125 29.409374Q196.4875 28.39375 195.14375 28.39375Q193.94063 28.39375 193.1125 29.20625Q192.28438 30.003124 192.19063 31.3625ZM201.15938 34.45625L202.90938 34.175Q203.05 35.221874 203.72188 35.784374Q204.39375 36.33125 205.59688 36.33125Q206.8 36.33125 207.37813 35.846874Q207.97188 35.346874 207.97188 34.690624Q207.97188 34.096874 207.45625 33.753124Q207.09688 33.51875 205.65938 33.159374Q203.72188 32.659374 202.97188 32.315624Q202.2375 31.95625 201.84688 31.33125Q201.45625 30.690624 201.45625 29.925Q201.45625 29.2375 201.76875 28.64375Q202.09688 28.05 202.64375 27.659374Q203.05 27.3625 203.75313 27.159374Q204.47188 26.940624 205.28438 26.940624Q206.50313 26.940624 207.425 27.3Q208.34688 27.64375 208.78438 28.253124Q209.22188 28.846874 209.39375 29.846874L207.675 30.08125Q207.55 29.284374 206.9875 28.846874Q206.425 28.39375 205.40938 28.39375Q204.19063 28.39375 203.675 28.8Q203.15938 29.190624 203.15938 29.721874Q203.15938 30.065624 203.37813 30.346874Q203.58125 30.628124 204.05 30.815624Q204.31563 30.909374 205.59688 31.253124Q207.47188 31.753124 208.20625 32.08125Q208.94063 32.39375 209.3625 33.003124Q209.78438 33.596874 209.78438 34.503124Q209.78438 35.378124 209.26875 36.159374Q208.75313 36.940624 207.78438 37.3625Q206.81563 37.784374 205.59688 37.784374Q203.58125 37.784374 202.51875 36.940624Q201.45625 36.096874 201.15938 34.45625ZM217.8625 41.51875L217.8625 27.175L219.47188 27.175L219.47188 28.51875Q220.03438 27.7375 220.7375 27.346874Q221.45625 26.940624 222.47188 26.940624Q223.8 26.940624 224.81563 27.628124Q225.83125 28.315624 226.34688 29.565624Q226.87813 30.8 226.87813 32.284374Q226.87813 33.878124 226.3 35.159374Q225.7375 36.425 224.64375 37.1125Q223.55 37.784374 222.34688 37.784374Q221.47188 37.784374 220.76875 37.409374Q220.08125 37.034374 219.62813 36.471874L219.62813 41.51875L217.8625 41.51875ZM219.45625 32.425Q219.45625 34.425 220.26875 35.378124Q221.08125 36.33125 222.2375 36.33125Q223.40938 36.33125 224.2375 35.346874Q225.08125 34.3625 225.08125 32.26875Q225.08125 30.3 224.25313 29.315624Q223.44063 28.315624 222.31563 28.315624Q221.19063 28.315624 220.31563 29.378124Q219.45625 30.425 219.45625 32.425ZM228.83125 37.55L228.83125 23.2375L230.58125 23.2375L230.58125 37.55L228.83125 37.55ZM239.65938 37.55L239.65938 36.01875Q238.45625 37.784374 236.37813 37.784374Q235.45625 37.784374 234.65938 37.440624Q233.8625 37.08125 233.47188 36.55Q233.09688 36.01875 232.94063 35.2375Q232.83125 34.721874 232.83125 33.596874L232.83125 27.175L234.58125 27.175L234.58125 32.925Q234.58125 34.3 234.69063 34.784374Q234.8625 35.471874 235.39375 35.878124Q235.94063 36.26875 236.72188 36.26875Q237.51875 36.26875 238.20625 35.8625Q238.90938 35.45625 239.19063 34.76875Q239.4875 34.065624 239.4875 32.7375L239.4875 27.175L241.2375 27.175L241.2375 37.55L239.65938 37.55ZM242.15938 34.45625L243.90938 34.175Q244.05 35.221874 244.72188 35.784374Q245.39375 36.33125 246.59688 36.33125Q247.8 36.33125 248.37813 35.846874Q248.97188 35.346874 248.97188 34.690624Q248.97188 34.096874 248.45625 33.753124Q248.09688 33.51875 246.65938 33.159374Q244.72188 32.659374 243.97188 32.315624Q243.2375 31.95625 242.84688 31.33125Q242.45625 30.690624 242.45625 29.925Q242.45625 29.2375 242.76875 28.64375Q243.09688 28.05 243.64375 27.659374Q244.05 27.3625 244.75313 27.159374Q245.47188 26.940624 246.28438 26.940624Q247.50313 26.940624 248.425 27.3Q249.34688 27.64375 249.78438 28.253124Q250.22188 28.846874 250.39375 29.846874L248.675 30.08125Q248.55 29.284374 247.9875 28.846874Q247.425 28.39375 246.40938 28.39375Q245.19063 28.39375 244.675 28.8Q244.15938 29.190624 244.15938 29.721874Q244.15938 30.065624 244.37813 30.346874Q244.58125 30.628124 245.05 30.815624Q245.31563 30.909374 246.59688 31.253124Q248.47188 31.753124 249.20625 32.08125Q249.94063 32.39375 250.3625 33.003124Q250.78438 33.596874 250.78438 34.503124Q250.78438 35.378124 250.26875 36.159374Q249.75313 36.940624 248.78438 37.3625Q247.81563 37.784374 246.59688 37.784374Q244.58125 37.784374 243.51875 36.940624Q242.45625 36.096874 242.15938 34.45625ZM258.84686 37.55L258.84686 27.175L260.425 27.175L260.425 28.753124Q261.03436 27.64375 261.55 27.3Q262.0656 26.940624 262.675 26.940624Q263.5656 26.940624 264.4875 27.503124L263.8781 29.14375Q263.2375 28.753124 262.59686 28.753124Q262.01874 28.753124 261.55 29.1125Q261.09686 29.45625 260.89374 30.065624Q260.6125 31.003124 260.6125 32.1125L260.6125 37.55L258.84686 37.55ZM272.97186 34.20625L274.78436 34.440624Q274.3625 36.01875 273.1906 36.909374Q272.03436 37.784374 270.22186 37.784374Q267.95624 37.784374 266.6125 36.39375Q265.28436 34.9875 265.28436 32.45625Q265.28436 29.83125 266.6281 28.39375Q267.97186 26.940624 270.1281 26.940624Q272.20624 26.940624 273.51874 28.3625Q274.84686 29.76875 274.84686 32.346874Q274.84686 32.503124 274.83124 32.815624L267.09686 32.815624Q267.1906 34.51875 268.0656 35.425Q268.9406 36.33125 270.2375 36.33125Q271.20624 36.33125 271.8781 35.83125Q272.5656 35.315624 272.97186 34.20625ZM267.1906 31.3625L272.9875 31.3625Q272.8781 30.065624 272.33124 29.409374Q271.4875 28.39375 270.14374 28.39375Q268.9406 28.39375 268.1125 29.20625Q267.28436 30.003124 267.1906 31.3625ZM269.09686 25.89375L270.39374 23.159374L272.6906 23.159374L270.55 25.89375L269.09686 25.89375ZM276.8625 41.51875L276.8625 27.175L278.47186 27.175L278.47186 28.51875Q279.03436 27.7375 279.7375 27.346874Q280.45624 26.940624 281.47186 26.940624Q282.8 26.940624 283.8156 27.628124Q284.83124 28.315624 285.34686 29.565624Q285.8781 30.8 285.8781 32.284374Q285.8781 33.878124 285.3 35.159374Q284.7375 36.425 283.64374 37.1125Q282.55 37.784374 281.34686 37.784374Q280.47186 37.784374 279.76874 37.409374Q279.08124 37.034374 278.6281 36.471874L278.6281 41.51875L276.8625 41.51875ZM278.45624 32.425Q278.45624 34.425 279.26874 35.378124Q280.08124 36.33125 281.2375 36.33125Q282.40936 36.33125 283.2375 35.346874Q284.08124 34.3625 284.08124 32.26875Q284.08124 30.3 283.2531 29.315624Q282.4406 28.315624 281.3156 28.315624Q280.1906 28.315624 279.3156 29.378124Q278.45624 30.425 278.45624 32.425ZM294.64374 36.26875Q293.65936 37.096874 292.7531 37.440624Q291.84686 37.784374 290.8156 37.784374Q289.1125 37.784374 288.1906 36.95625Q287.26874 36.1125 287.26874 34.815624Q287.26874 34.05 287.6125 33.425Q287.97186 32.8 288.53436 32.425Q289.09686 32.034374 289.8 31.83125Q290.3156 31.70625 291.3625 31.565624Q293.4875 31.315624 294.4875 30.971874Q294.5031 30.6125 294.5031 30.503124Q294.5031 29.440624 294.0031 28.9875Q293.33124 28.39375 292.0031 28.39375Q290.7531 28.39375 290.15936 28.83125Q289.58124 29.26875 289.3 30.378124L287.58124 30.14375Q287.8156 29.034374 288.34686 28.3625Q288.8781 27.675 289.89374 27.315624Q290.90936 26.940624 292.2531 26.940624Q293.58124 26.940624 294.40936 27.253124Q295.2375 27.565624 295.6281 28.05Q296.01874 28.51875 296.175 29.2375Q296.26874 29.690624 296.26874 30.8625L296.26874 33.20625Q296.26874 35.659374 296.3781 36.315624Q296.4875 36.95625 296.83124 37.55L294.9875 37.55Q294.72186 37.003124 294.64374 36.26875ZM294.4875 32.346874Q293.53436 32.7375 291.6125 33.003124Q290.53436 33.159374 290.08124 33.3625Q289.64374 33.55 289.39374 33.925Q289.14374 34.3 289.14374 34.76875Q289.14374 35.471874 289.675 35.940624Q290.20624 36.409374 291.2375 36.409374Q292.2531 36.409374 293.03436 35.971874Q293.83124 35.51875 294.20624 34.753124Q294.4875 34.14375 294.4875 32.9875L294.4875 32.346874ZM298.8625 37.55L298.8625 27.175L300.45624 27.175L300.45624 28.659374Q301.59686 26.940624 303.7531 26.940624Q304.6906 26.940624 305.47186 27.284374Q306.26874 27.6125 306.65936 28.159374Q307.05 28.70625 307.20624 29.45625Q307.3 29.95625 307.3 31.175L307.3 37.55L305.53436 37.55L305.53436 31.2375Q305.53436 30.159374 305.33124 29.628124Q305.1281 29.096874 304.59686 28.784374Q304.08124 28.471874 303.3781 28.471874Q302.2531 28.471874 301.4406 29.190624Q300.6281 29.89375 300.6281 31.878124L300.6281 37.55L298.8625 37.55ZM315.59686 37.55L315.59686 36.2375Q314.6125 37.784374 312.6906 37.784374Q311.45624 37.784374 310.40936 37.096874Q309.3781 36.409374 308.8 35.190624Q308.2375 33.971874 308.2375 32.378124Q308.2375 30.815624 308.7531 29.55Q309.26874 28.284374 310.3 27.6125Q311.34686 26.940624 312.6125 26.940624Q313.55 26.940624 314.28436 27.346874Q315.01874 27.7375 315.4875 28.3625L315.4875 23.2375L317.22186 23.2375L317.22186 37.55L315.59686 37.55ZM310.03436 32.378124Q310.03436 34.3625 310.8781 35.346874Q311.72186 36.33125 312.8625 36.33125Q314.01874 36.33125 314.8156 35.39375Q315.6281 34.45625 315.6281 32.51875Q315.6281 30.39375 314.8 29.39375Q313.9875 28.39375 312.78436 28.39375Q311.6125 28.39375 310.8156 29.3625Q310.03436 30.315624 310.03436 32.378124ZM326.65936 37.55L326.65936 36.01875Q325.45624 37.784374 323.3781 37.784374Q322.45624 37.784374 321.65936 37.440624Q320.8625 37.08125 320.47186 36.55Q320.09686 36.01875 319.9406 35.2375Q319.83124 34.721874 319.83124 33.596874L319.83124 27.175L321.58124 27.175L321.58124 32.925Q321.58124 34.3 321.6906 34.784374Q321.8625 35.471874 322.39374 35.878124Q322.9406 36.26875 323.72186 36.26875Q324.51874 36.26875 325.20624 35.8625Q325.90936 35.45625 326.1906 34.76875Q326.4875 34.065624 326.4875 32.7375L326.4875 27.175L328.2375 27.175L328.2375 37.55L326.65936 37.55ZM336.97186 34.20625L338.78436 34.440624Q338.3625 36.01875 337.1906 36.909374Q336.03436 37.784374 334.22186 37.784374Q331.95624 37.784374 330.6125 36.39375Q329.28436 34.9875 329.28436 32.45625Q329.28436 29.83125 330.6281 28.39375Q331.97186 26.940624 334.1281 26.940624Q336.20624 26.940624 337.51874 28.3625Q338.84686 29.76875 338.84686 32.346874Q338.84686 32.503124 338.83124 32.815624L331.09686 32.815624Q331.1906 34.51875 332.0656 35.425Q332.9406 36.33125 334.2375 36.33125Q335.20624 36.33125 335.8781 35.83125Q336.5656 35.315624 336.97186 34.20625ZM331.1906 31.3625L336.9875 31.3625Q336.8781 30.065624 336.33124 29.409374Q335.4875 28.39375 334.14374 28.39375Q332.9406 28.39375 332.1125 29.20625Q331.28436 30.003124 331.1906 31.3625ZM340.15936 34.45625L341.90936 34.175Q342.05 35.221874 342.72186 35.784374Q343.39374 36.33125 344.59686 36.33125Q345.8 36.33125 346.3781 35.846874Q346.97186 35.346874 346.97186 34.690624Q346.97186 34.096874 346.45624 33.753124Q346.09686 33.51875 344.65936 33.159374Q342.72186 32.659374 341.97186 32.315624Q341.2375 31.95625 340.84686 31.33125Q340.45624 30.690624 340.45624 29.925Q340.45624 29.2375 340.76874 28.64375Q341.09686 28.05 341.64374 27.659374Q342.05 27.3625 342.7531 27.159374Q343.47186 26.940624 344.28436 26.940624Q345.5031 26.940624 346.425 27.3Q347.34686 27.64375 347.78436 28.253124Q348.22186 28.846874 348.39374 29.846874L346.675 30.08125Q346.55 29.284374 345.9875 28.846874Q345.425 28.39375 344.40936 28.39375Q343.1906 28.39375 342.675 28.8Q342.15936 29.190624 342.15936 29.721874Q342.15936 30.065624 342.3781 30.346874Q342.58124 30.628124 343.05 30.815624Q343.3156 30.909374 344.59686 31.253124Q346.47186 31.753124 347.20624 32.08125Q347.9406 32.39375 348.3625 33.003124Q348.78436 33.596874 348.78436 34.503124Q348.78436 35.378124 348.26874 36.159374Q347.7531 36.940624 346.78436 37.3625Q345.8156 37.784374 344.59686 37.784374Q342.58124 37.784374 341.51874 36.940624Q340.45624 36.096874 340.15936 34.45625ZM363.64374 33.753124L365.3625 33.971874Q365.08124 35.76875 363.90936 36.784374Q362.7531 37.784374 361.05 37.784374Q358.925 37.784374 357.6281 36.39375Q356.33124 35.003124 356.33124 32.409374Q356.33124 30.721874 356.8781 29.471874Q357.4406 28.20625 358.58124 27.58125Q359.72186 26.940624 361.0656 26.940624Q362.7531 26.940624 363.8156 27.8Q364.89374 28.659374 365.20624 30.221874L363.4875 30.4875Q363.2531 29.440624 362.6281 28.925Q362.0031 28.39375 361.1281 28.39375Q359.8 28.39375 358.97186 29.346874Q358.14374 30.3 358.14374 32.346874Q358.14374 34.440624 358.9406 35.39375Q359.7375 36.33125 361.03436 36.33125Q362.0656 36.33125 362.7531 35.70625Q363.45624 35.065624 363.64374 33.753124ZM366.8625 37.55L366.8625 23.2375L368.6281 23.2375L368.6281 28.3625Q369.8625 26.940624 371.7375 26.940624Q372.8781 26.940624 373.72186 27.39375Q374.58124 27.846874 374.9406 28.659374Q375.3156 29.45625 375.3156 30.971874L375.3156 37.55L373.5656 37.55L373.5656 30.971874Q373.5656 29.659374 372.9875 29.065624Q372.40936 28.45625 371.3781 28.45625Q370.59686 28.45625 369.89374 28.8625Q369.20624 29.26875 368.90936 29.971874Q368.6281 30.659374 368.6281 31.878124L368.6281 37.55L366.8625 37.55ZM383.97186 34.20625L385.78436 34.440624Q385.3625 36.01875 384.1906 36.909374Q383.03436 37.784374 381.22186 37.784374Q378.95624 37.784374 377.6125 36.39375Q376.28436 34.9875 376.28436 32.45625Q376.28436 29.83125 377.6281 28.39375Q378.97186 26.940624 381.1281 26.940624Q383.20624 26.940624 384.51874 28.3625Q385.84686 29.76875 385.84686 32.346874Q385.84686 32.503124 385.83124 32.815624L378.09686 32.815624Q378.1906 34.51875 379.0656 35.425Q379.9406 36.33125 381.2375 36.33125Q382.20624 36.33125 382.8781 35.83125Q383.5656 35.315624 383.97186 34.20625ZM378.1906 31.3625L383.9875 31.3625Q383.8781 30.065624 383.33124 29.409374Q382.4875 28.39375 381.14374 28.39375Q379.9406 28.39375 379.1125 29.20625Q378.28436 30.003124 378.1906 31.3625ZM386.9406 37.55L386.9406 36.128124L393.55 28.55Q392.425 28.596874 391.5656 28.596874L387.33124 28.596874L387.33124 27.175L395.8156 27.175L395.8156 28.346874L390.1906 34.925L389.1125 36.128124Q390.28436 36.034374 391.33124 36.034374L396.1281 36.034374L396.1281 37.55L386.9406 37.55ZM402.83124 37.55L402.83124 23.2375L404.58124 23.2375L404.58124 37.55L402.83124 37.55ZM413.97186 34.20625L415.78436 34.440624Q415.3625 36.01875 414.1906 36.909374Q413.03436 37.784374 411.22186 37.784374Q408.95624 37.784374 407.6125 36.39375Q406.28436 34.9875 406.28436 32.45625Q406.28436 29.83125 407.6281 28.39375Q408.97186 26.940624 411.1281 26.940624Q413.20624 26.940624 414.51874 28.3625Q415.84686 29.76875 415.84686 32.346874Q415.84686 32.503124 415.83124 32.815624L408.09686 32.815624Q408.1906 34.51875 409.0656 35.425Q409.9406 36.33125 411.2375 36.33125Q412.20624 36.33125 412.8781 35.83125Q413.5656 35.315624 413.97186 34.20625ZM408.1906 31.3625L413.9875 31.3625Q413.8781 30.065624 413.33124 29.409374Q412.4875 28.39375 411.14374 28.39375Q409.9406 28.39375 409.1125 29.20625Q408.28436 30.003124 408.1906 31.3625ZM417.15936 34.45625L418.90936 34.175Q419.05 35.221874 419.72186 35.784374Q420.39374 36.33125 421.59686 36.33125Q422.8 36.33125 423.3781 35.846874Q423.97186 35.346874 423.97186 34.690624Q423.97186 34.096874 423.45624 33.753124Q423.09686 33.51875 421.65936 33.159374Q419.72186 32.659374 418.97186 32.315624Q418.2375 31.95625 417.84686 31.33125Q417.45624 30.690624 417.45624 29.925Q417.45624 29.2375 417.76874 28.64375Q418.09686 28.05 418.64374 27.659374Q419.05 27.3625 419.7531 27.159374Q420.47186 26.940624 421.28436 26.940624Q422.5031 26.940624 423.425 27.3Q424.34686 27.64375 424.78436 28.253124Q425.22186 28.846874 425.39374 29.846874L423.675 30.08125Q423.55 29.284374 422.9875 28.846874Q422.425 28.39375 421.40936 28.39375Q420.1906 28.39375 419.675 28.8Q419.15936 29.190624 419.15936 29.721874Q419.15936 30.065624 419.3781 30.346874Q419.58124 30.628124 420.05 30.815624Q420.3156 30.909374 421.59686 31.253124Q423.47186 31.753124 424.20624 32.08125Q424.9406 32.39375 425.3625 33.003124Q425.78436 33.596874 425.78436 34.503124Q425.78436 35.378124 425.26874 36.159374Q424.7531 36.940624 423.78436 37.3625Q422.8156 37.784374 421.59686 37.784374Q419.58124 37.784374 418.51874 36.940624Q417.45624 36.096874 417.15936 34.45625ZM433.8625 37.55L433.8625 23.2375L435.6281 23.2375L435.6281 28.3625Q436.8625 26.940624 438.7375 26.940624Q439.8781 26.940624 440.72186 27.39375Q441.58124 27.846874 441.9406 28.659374Q442.3156 29.45625 442.3156 30.971874L442.3156 37.55L440.5656 37.55L440.5656 30.971874Q440.5656 29.659374 439.9875 29.065624Q439.40936 28.45625 438.3781 28.45625Q437.59686 28.45625 436.89374 28.8625Q436.20624 29.26875 435.90936 29.971874Q435.6281 30.659374 435.6281 31.878124L435.6281 37.55L433.8625 37.55ZM450.65936 37.55L450.65936 36.01875Q449.45624 37.784374 447.3781 37.784374Q446.45624 37.784374 445.65936 37.440624Q444.8625 37.08125 444.47186 36.55Q444.09686 36.01875 443.9406 35.2375Q443.83124 34.721874 443.83124 33.596874L443.83124 27.175L445.58124 27.175L445.58124 32.925Q445.58124 34.3 445.6906 34.784374Q445.8625 35.471874 446.39374 35.878124Q446.9406 36.26875 447.72186 36.26875Q448.51874 36.26875 449.20624 35.8625Q449.90936 35.45625 450.1906 34.76875Q450.4875 34.065624 450.4875 32.7375L450.4875 27.175L452.2375 27.175L452.2375 37.55L450.65936 37.55ZM453.8625 37.55L453.8625 27.175L455.4406 27.175L455.4406 28.628124Q455.925 27.878124 456.7375 27.409374Q457.55 26.940624 458.58124 26.940624Q459.7375 26.940624 460.47186 27.425Q461.20624 27.89375 461.51874 28.753124Q462.7531 26.940624 464.72186 26.940624Q466.26874 26.940624 467.09686 27.8Q467.925 28.659374 467.925 30.425L467.925 37.55L466.175 37.55L466.175 31.01875Q466.175 29.95625 466.0031 29.503124Q465.83124 29.034374 465.3781 28.753124Q464.9406 28.471874 464.33124 28.471874Q463.2375 28.471874 462.5031 29.20625Q461.78436 29.925 461.78436 31.51875L461.78436 37.55L460.03436 37.55L460.03436 30.815624Q460.03436 29.64375 459.59686 29.065624Q459.175 28.471874 458.1906 28.471874Q457.45624 28.471874 456.8156 28.8625Q456.1906 29.253124 455.90936 30.003124Q455.6281 30.753124 455.6281 32.175L455.6281 37.55L453.8625 37.55ZM476.64374 36.26875Q475.65936 37.096874 474.7531 37.440624Q473.84686 37.784374 472.8156 37.784374Q471.1125 37.784374 470.1906 36.95625Q469.26874 36.1125 469.26874 34.815624Q469.26874 34.05 469.6125 33.425Q469.97186 32.8 470.53436 32.425Q471.09686 32.034374 471.8 31.83125Q472.3156 31.70625 473.3625 31.565624Q475.4875 31.315624 476.4875 30.971874Q476.5031 30.6125 476.5031 30.503124Q476.5031 29.440624 476.0031 28.9875Q475.33124 28.39375 474.0031 28.39375Q472.7531 28.39375 472.15936 28.83125Q471.58124 29.26875 471.3 30.378124L469.58124 30.14375Q469.8156 29.034374 470.34686 28.3625Q470.8781 27.675 471.89374 27.315624Q472.90936 26.940624 474.2531 26.940624Q475.58124 26.940624 476.40936 27.253124Q477.2375 27.565624 477.6281 28.05Q478.01874 28.51875 478.175 29.2375Q478.26874 29.690624 478.26874 30.8625L478.26874 33.20625Q478.26874 35.659374 478.3781 36.315624Q478.4875 36.95625 478.83124 37.55L476.9875 37.55Q476.72186 37.003124 476.64374 36.26875ZM476.4875 32.346874Q475.53436 32.7375 473.6125 33.003124Q472.53436 33.159374 472.08124 33.3625Q471.64374 33.55 471.39374 33.925Q471.14374 34.3 471.14374 34.76875Q471.14374 35.471874 471.675 35.940624Q472.20624 36.409374 473.2375 36.409374Q474.2531 36.409374 475.03436 35.971874Q475.83124 35.51875 476.20624 34.753124Q476.4875 34.14375 476.4875 32.9875L476.4875 32.346874ZM480.8781 25.253124L480.8781 23.2375L482.64374 23.2375L482.64374 25.253124L480.8781 25.253124ZM480.8781 37.55L480.8781 27.175L482.64374 27.175L482.64374 37.55L480.8781 37.55ZM484.8625 37.55L484.8625 27.175L486.45624 27.175L486.45624 28.659374Q487.59686 26.940624 489.7531 26.940624Q490.6906 26.940624 491.47186 27.284374Q492.26874 27.6125 492.65936 28.159374Q493.05 28.70625 493.20624 29.45625Q493.3 29.95625 493.3 31.175L493.3 37.55L491.53436 37.55L491.53436 31.2375Q491.53436 30.159374 491.33124 29.628124Q491.1281 29.096874 490.59686 28.784374Q490.08124 28.471874 489.3781 28.471874Q488.2531 28.471874 487.4406 29.190624Q486.6281 29.89375 486.6281 31.878124L486.6281 37.55L484.8625 37.55ZM494.15936 34.45625L495.90936 34.175Q496.05 35.221874 496.72186 35.784374Q497.39374 36.33125 498.59686 36.33125Q499.8 36.33125 500.3781 35.846874Q500.97186 35.346874 500.97186 34.690624Q500.97186 34.096874 500.45624 33.753124Q500.09686 33.51875 498.65936 33.159374Q496.72186 32.659374 495.97186 32.315624Q495.2375 31.95625 494.84686 31.33125Q494.45624 30.690624 494.45624 29.925Q494.45624 29.2375 494.76874 28.64375Q495.09686 28.05 495.64374 27.659374Q496.05 27.3625 496.7531 27.159374Q497.47186 26.940624 498.28436 26.940624Q499.5031 26.940624 500.425 27.3Q501.34686 27.64375 501.78436 28.253124Q502.22186 28.846874 502.39374 29.846874L500.675 30.08125Q500.55 29.284374 499.9875 28.846874Q499.425 28.39375 498.40936 28.39375Q497.1906 28.39375 496.675 28.8Q496.15936 29.190624 496.15936 29.721874Q496.15936 30.065624 496.3781 30.346874Q496.58124 30.628124 497.05 30.815624Q497.3156 30.909374 498.59686 31.253124Q500.47186 31.753124 501.20624 32.08125Q501.9406 32.39375 502.3625 33.003124Q502.78436 33.596874 502.78436 34.503124Q502.78436 35.378124 502.26874 36.159374Q501.7531 36.940624 500.78436 37.3625Q499.8156 37.784374 498.59686 37.784374Q496.58124 37.784374 495.51874 36.940624Q494.45624 36.096874 494.15936 34.45625Z" fill-rule="nonzero"/></svg>